<svg width="57" height="57" viewBox="0 0 57 57" fill="none" xmlns="http://www.w3.org/2000/svg">
<g clip-path="url(#clip0_53_1925)">
<path d="M10.4538 0.981689H46.9838C52.5222 0.981689 57 5.45952 57 10.998V46.1139C57 51.6523 52.5222 56.1302 46.9837 56.1302H10.4538C4.91533 56.1301 0.4375 51.6523 0.4375 46.1138V10.998C0.4375 5.45952 4.91533 0.981689 10.4538 0.981689Z" fill="#DA5AA0"/>
<path d="M27.8464 34.0704H19.0792L17.2881 39.6088C17.241 39.8209 17.0525 39.9623 16.8404 39.9388H12.4096C12.1503 39.9388 12.0796 39.7974 12.1503 39.5146L19.7391 17.6673C19.8098 17.4317 19.8805 17.1724 19.9747 16.8896C20.069 16.3946 20.1161 15.8762 20.1161 15.3576C20.0926 15.2398 20.1868 15.122 20.3047 15.0983H26.4087C26.5973 15.0983 26.6915 15.169 26.7151 15.2869L35.3173 39.5616C35.388 39.8209 35.3173 39.9387 35.0817 39.9387H30.156C29.991 39.9622 29.826 39.8444 29.7789 39.6794L27.8464 34.0704ZM20.4461 29.2861H26.4324L23.4157 19.4584L20.4461 29.2861ZM40.4551 19.1285C39.6774 19.1521 38.9232 18.8457 38.3575 18.3036C37.8155 17.7145 37.5326 16.9367 37.5563 16.1354C37.5328 15.3341 37.8391 14.5799 38.4047 14.0378C38.9703 13.4957 39.7246 13.2129 40.5023 13.2129C41.4214 13.2129 42.1285 13.4957 42.6469 14.0378C43.1691 14.6092 43.4481 15.3616 43.4246 16.1354C43.4482 16.9366 43.1654 17.7144 42.5997 18.3036C42.0578 18.8693 41.2564 19.1756 40.4551 19.1285ZM37.8156 39.5853V21.4381C37.8156 21.2025 37.9098 21.1081 38.1219 21.1081H42.7883C43.0004 21.1081 43.0947 21.226 43.0947 21.4381V39.5853C43.0947 39.8445 43.0004 39.9623 42.7883 39.9623H38.1691C37.9333 39.9623 37.8156 39.8209 37.8156 39.5853Z" fill="white"/>
</g>
<defs>
<clipPath id="clip0_53_1925">
<rect width="56.5625" height="56.5625" fill="white" transform="translate(0.4375 0.274414)"/>
</clipPath>
</defs>
</svg>
