<svg width="74" height="60" viewBox="0 0 74 60" fill="none" xmlns="http://www.w3.org/2000/svg">
<path d="M22.293 4C18.6412 4 15.9391 7.19932 16.0601 10.669C16.1761 14.0024 16.0254 18.3196 14.9395 21.8403C13.8504 25.3713 12.0085 27.6081 9 27.8953V31.1375C12.0085 31.4247 13.8504 33.6614 14.9395 37.1924C16.0254 40.7132 16.1761 45.0303 16.0601 48.3637C15.9391 51.8329 18.6412 55.0327 22.2936 55.0327H59.7119C63.3637 55.0327 66.0652 51.8334 65.9443 48.3637C65.8282 45.0303 65.979 40.7132 67.0648 37.1924C68.1544 33.6614 69.9915 31.4247 73 31.1375V27.8953C69.9915 27.6081 68.1544 25.3713 67.0648 21.8403C65.979 18.3201 65.8282 14.0024 65.9443 10.669C66.0652 7.19986 63.3637 4 59.7119 4H22.2925H22.293ZM52.3898 35.4139C52.3898 40.1914 48.8297 43.0889 42.9216 43.0889H32.8644C32.2653 43.0889 31.7797 42.6028 31.7797 42.0031V17.0296C31.7797 16.43 32.2653 15.9438 32.8644 15.9438H42.8641C47.7905 15.9438 51.0236 18.6149 51.0236 22.716C51.0236 25.5944 48.8487 28.1716 46.0777 28.6227V28.7731C49.8499 29.1874 52.3898 31.802 52.3898 35.4139ZM41.8249 19.3858H36.0904V27.4935H40.9203C44.654 27.4935 46.7128 25.9886 46.7128 23.2985C46.7128 20.7778 44.9425 19.3858 41.8249 19.3858ZM36.0904 30.7107V39.6458H42.0359C45.9231 39.6458 47.9825 38.0844 47.9825 35.15C47.9825 32.2151 45.8656 30.7102 41.7859 30.7102H36.0904V30.7107Z" fill="#DA5AA0"/>
</svg>
