<svg width="52" height="41" viewBox="0 0 52 41" fill="none" xmlns="http://www.w3.org/2000/svg">
<path d="M27.539 39.1869H10.3584L14.2633 29.8152H23.6341L27.539 39.1869Z" fill="#DA5AA0"/>
<path d="M18.4317 39.1869H10.3584L14.2633 29.8152H18.0448L18.2388 32.939C18.2388 32.939 16.3284 35.2717 18.2388 38.2722C18.4442 38.5947 18.4981 38.8997 18.4317 39.1869Z" fill="#DA5AA0"/>
<path d="M51.7468 3.25234V37.6363C51.7468 39.3549 50.3539 40.7477 48.6353 40.7477H31.4433L29.8813 39.1868V3.25234C29.8813 2.68811 30.0317 2.15811 30.2962 1.70179C30.8324 0.768318 31.8395 0.140869 32.9928 0.140869H48.6353C50.3539 0.140869 51.7468 1.53368 51.7468 3.25234Z" fill="#E798DA"/>
<path d="M40.814 9.30888V28.457C40.814 31.5703 39.0295 34.2462 36.4738 35.4233C35.6867 35.7858 35.3745 36.7225 35.7481 37.5043C35.9991 38.0298 36.129 38.605 36.1281 39.1874C36.1288 39.7246 36.0179 40.2562 35.8025 40.7483H31.4433L29.8813 39.1874V3.25294C29.8813 2.68871 30.0317 2.15871 30.2962 1.70239H33.5539C37.5635 1.70239 40.814 5.1074 40.814 9.30888Z" fill="#DA5AA0"/>
<path d="M48.6234 6.38161V7.95602C48.6234 8.8148 47.9275 9.51181 47.0677 9.51181H33.0049V6.38171C33.0049 5.90255 33.2227 5.47311 33.5639 5.18792L39.4197 4.82593H47.0678C47.9275 4.82583 48.6234 5.52284 48.6234 6.38161Z" fill="#DA5AA0"/>
<path d="M40.8147 9.30856V9.51181H33.0049V6.38171C33.0049 5.52294 33.7019 4.82593 34.5607 4.82593H39.4198C40.2971 6.08294 40.8147 7.63248 40.8147 9.30856Z" fill="#E798DA"/>
<path d="M48.6235 15.7522V17.3266C48.6235 18.1864 47.9276 18.8824 47.0678 18.8824H40.8147L39.0962 18.5484L37.6908 18.8824H33.0049V14.1965H37.6908L39.122 14.5564L40.8147 14.1965H47.0678C47.9276 14.1964 48.6235 14.8934 48.6235 15.7522Z" fill="#DA5AA0"/>
<path d="M33.0049 14.1965H40.8147V18.8824H33.0049V14.1965Z" fill="#E798DA"/>
<path d="M37.6907 11.0489V26.7162C37.6907 30.1534 34.9048 32.9392 31.4677 32.9392H18.2387L15.5057 32.5171L12.9616 32.9392H6.42948C2.99236 32.9392 0.206543 30.1534 0.206543 26.7161V11.0489C0.206543 7.61174 2.99236 4.82593 6.42948 4.82593H31.4676C34.9048 4.82583 37.6907 7.61164 37.6907 11.0489Z" fill="#E798DA"/>
<path d="M18.2387 32.9392H6.42948C2.99236 32.9392 0.206543 30.1534 0.206543 26.7161V11.0489C0.206543 7.61174 2.99236 4.82593 6.42948 4.82593H16.183C13.6181 8.8148 7.58281 20.8282 18.2387 32.9392Z" fill="#DA5AA0"/>
<path d="M34.5663 11.0609V26.7034C34.5663 28.422 33.1734 29.8149 31.4548 29.8149H6.44155C4.72299 29.8149 3.33008 28.422 3.33008 26.7034V11.0609C3.33008 9.34237 4.72299 7.94946 6.44155 7.94946H31.4548C33.1734 7.94946 34.5663 9.34237 34.5663 11.0609Z" fill="#EDECF9"/>
<path d="M15.8424 29.8149H6.44155C4.72299 29.8149 3.33008 28.422 3.33008 26.7034V11.0609C3.33008 9.34237 4.72299 7.94946 6.44155 7.94946H14.4671C12.1884 12.8418 10.1172 21.1246 15.8424 29.8149Z" fill="#DDDCF2"/>
<path d="M33.0044 39.187C33.0044 39.6175 32.8302 40.0085 32.547 40.2906C32.4024 40.4359 32.2304 40.5511 32.041 40.6296C31.8516 40.7081 31.6485 40.7483 31.4435 40.7479H6.45301C5.59111 40.7479 4.89209 40.0489 4.89209 39.187C4.89209 38.7556 5.06735 38.3645 5.34951 38.0824C5.49423 37.9372 5.66622 37.8221 5.8556 37.7436C6.04498 37.6651 6.24801 37.6248 6.45301 37.625H11.0092L13.6871 38.2774L17.8783 37.625H31.4434C32.3053 37.6251 33.0044 38.3242 33.0044 39.187Z" fill="#E798DA"/>
<path d="M17.8784 40.7479H6.45301C5.59111 40.7479 4.89209 40.0489 4.89209 39.187C4.89209 38.7556 5.06735 38.3645 5.34951 38.0824C5.49423 37.9372 5.66622 37.8221 5.8556 37.7436C6.04498 37.6651 6.24801 37.6248 6.45301 37.625H17.8783C17.8784 37.6251 16.6847 39.0232 17.8784 40.7479Z" fill="#DA5AA0"/>
<path d="M46.2808 28.2537C47.5747 28.2537 48.6236 27.2048 48.6236 25.9109C48.6236 24.617 47.5747 23.5681 46.2808 23.5681C44.9869 23.5681 43.938 24.617 43.938 25.9109C43.938 27.2048 44.9869 28.2537 46.2808 28.2537Z" fill="#DA5AA0"/>
<path d="M46.2808 36.0633C47.5747 36.0633 48.6236 35.0144 48.6236 33.7205C48.6236 32.4266 47.5747 31.3777 46.2808 31.3777C44.9869 31.3777 43.938 32.4266 43.938 33.7205C43.938 35.0144 44.9869 36.0633 46.2808 36.0633Z" fill="#FF9EB1"/>
<path d="M10.6969 21.8845C12.3783 21.8845 13.7414 20.799 13.7414 19.4599C13.7414 18.1209 12.3783 17.0354 10.6969 17.0354C9.01542 17.0354 7.65234 18.1209 7.65234 19.4599C7.65234 20.799 9.01542 21.8845 10.6969 21.8845Z" fill="#FFA1AC"/>
<path d="M27.1993 21.8842C28.8808 21.8842 30.2438 20.7987 30.2438 19.4597C30.2438 18.1207 28.8808 17.0352 27.1993 17.0352C25.5179 17.0352 24.1548 18.1207 24.1548 19.4597C24.1548 20.7987 25.5179 21.8842 27.1993 21.8842Z" fill="#FFA1AC"/>
<path d="M12.4712 17.9033C12.3691 17.9034 12.2679 17.8832 12.1735 17.8442C12.0791 17.8051 11.9934 17.7478 11.9212 17.6755C11.8489 17.6033 11.7916 17.5176 11.7525 17.4232C11.7135 17.3288 11.6933 17.2276 11.6934 17.1255V15.8809C11.6934 15.6746 11.7753 15.4767 11.9212 15.3309C12.0671 15.185 12.2649 15.103 12.4712 15.103C12.6775 15.103 12.8753 15.185 13.0212 15.3309C13.1671 15.4767 13.249 15.6746 13.249 15.8809V17.1255C13.2491 17.2276 13.2289 17.3288 13.1899 17.4232C13.1508 17.5176 13.0935 17.6033 13.0212 17.6755C12.949 17.7478 12.8633 17.8051 12.7689 17.8442C12.6745 17.8832 12.5734 17.9034 12.4712 17.9033ZM25.4251 17.9033C25.323 17.9034 25.2218 17.8832 25.1275 17.8442C25.0331 17.8051 24.9473 17.7478 24.8751 17.6755C24.8029 17.6033 24.7456 17.5176 24.7065 17.4232C24.6674 17.3288 24.6473 17.2276 24.6473 17.1255V15.8809C24.6473 15.6746 24.7292 15.4767 24.8751 15.3309C25.021 15.185 25.2188 15.103 25.4251 15.103C25.6314 15.103 25.8293 15.185 25.9752 15.3309C26.121 15.4767 26.203 15.6746 26.203 15.8809V17.1255C26.203 17.3318 26.121 17.5296 25.9752 17.6755C25.8293 17.8214 25.6314 17.9033 25.4251 17.9033ZM18.9482 18.6442C18.5134 18.6441 18.0836 18.5508 17.6879 18.3706C17.2922 18.1903 16.9397 17.9274 16.6542 17.5994C16.587 17.5224 16.5358 17.4329 16.5032 17.3361C16.4707 17.2393 16.4575 17.137 16.4645 17.035C16.4715 16.9331 16.4986 16.8336 16.544 16.7421C16.5895 16.6506 16.6525 16.569 16.7296 16.5019C16.8066 16.4348 16.8961 16.3835 16.9929 16.3509C17.0897 16.3184 17.192 16.3053 17.2939 16.3123C17.3959 16.3193 17.4954 16.3463 17.5869 16.3917C17.6784 16.4372 17.76 16.5003 17.8271 16.5773C18.1102 16.9022 18.5189 17.0885 18.9483 17.0885C19.3778 17.0885 19.7864 16.9022 20.0695 16.5773C20.2056 16.4236 20.3969 16.33 20.6017 16.3167C20.8065 16.3034 21.0083 16.3717 21.163 16.5065C21.3178 16.6414 21.413 16.8319 21.4278 17.0366C21.4427 17.2413 21.3761 17.4436 21.2425 17.5994C20.9569 17.9274 20.6043 18.1903 20.2086 18.3705C19.8128 18.5507 19.3831 18.6441 18.9482 18.6442Z" fill="#E798DA"/>
</svg>
