<svg width="64" height="90" viewBox="0 0 64 90" fill="none" xmlns="http://www.w3.org/2000/svg">
<path d="M63.881 17.687L58.0721 82.7611L31.961 89.9999L5.92185 82.7713L0.119141 17.687H63.881Z" fill="#DA5AA0"/>
<path d="M53.099 78.6175L58.0631 23.0088H32V84.467L53.099 78.6175Z" fill="#E798DA"/>
<path d="M13.4219 47.1476L14.1373 55.1298H32.0002L35.4338 51.1387L32.0002 47.1476H13.4219ZM32.0002 30.9912H11.9844L12.71 38.9736H32.0002L35.4338 34.9823L32.0002 30.9912ZM32.0002 76.1835L35.4338 71.9505L32.0002 67.8786L31.9653 67.8879L23.0753 65.4874L22.507 59.1211H14.494L15.6123 71.6545L31.9635 76.1937L32.0002 76.1835Z" fill="#EBEBEB"/>
<path d="M15.125 0H24.793V4.04297H19.168V8.08594H24.793V12.1289H15.125V0ZM26.7266 0H36.3945V3.51562H30.7695V4.21875H36.3945V12.3047H26.7266V8.61328H32.3516V7.91016H26.7266V0ZM38.3281 0H47.9961V3.51562H42.3711V4.21875H47.9961V12.3047H38.3281V8.61328H43.9531V7.91016H38.3281V0Z" fill="#DA5AA0"/>
<path d="M41.802 55.1298L40.8754 65.4823L31.9727 67.8852V76.1898L48.3368 71.6545L48.4569 70.3059L50.3327 49.2911L50.5274 47.1476L51.9685 30.9912H31.9727V38.9736H43.2205L42.4942 47.1476H31.9727V55.1298H41.802Z" fill="white"/>
</svg>
