<svg width="51" height="51" viewBox="0 0 51 51" fill="none" xmlns="http://www.w3.org/2000/svg">
<g clip-path="url(#clip0_53_1916)">
<path d="M25.2583 25.1326C25.2583 20.518 28.9992 16.7771 33.6138 16.7771C38.2284 16.7771 41.9693 20.5181 41.9693 25.1326C41.9693 29.7473 38.2283 33.4881 33.6138 33.4881C28.9991 33.4881 25.2583 29.7472 25.2583 25.1326Z" fill="#DA5AA0"/>
<path d="M8.54688 41.8441C8.54688 37.2295 12.2878 33.4886 16.9024 33.4886L21.3552 31.1377L25.2579 33.4886V41.8441C25.2579 46.4588 21.517 50.1996 16.9024 50.1996C12.2878 50.1996 8.54688 46.4587 8.54688 41.8441Z" fill="#E798DA"/>
<path d="M25.2586 0.0661621L20.7119 7.9651L25.2586 16.7772H33.4969C38.1116 16.7772 41.8524 13.0363 41.8524 8.42168C41.8524 3.80707 38.1115 0.0661621 33.4969 0.0661621H25.2586Z" fill="#E798DA"/>
<path d="M8.43018 8.42193C8.43018 13.0365 12.1711 16.7775 16.7857 16.7775L21.2181 18.4894L25.2584 16.7775V0.0664062H16.7856C12.1711 0.0664062 8.43018 3.80731 8.43018 8.42193Z" fill="#DA5AA0"/>
<path d="M8.54688 25.1327C8.54688 29.7474 12.2878 33.4882 16.9024 33.4882H25.2579V16.7771H16.9024C12.2878 16.7771 8.54688 20.5181 8.54688 25.1327Z" fill="#F9B5DA"/>
</g>
<defs>
<clipPath id="clip0_53_1916">
<rect width="50.1333" height="50.1333" fill="white" transform="translate(0.133301 0.0666504)"/>
</clipPath>
</defs>
</svg>
