<svg width="45" height="43" viewBox="0 0 45 43" fill="none" xmlns="http://www.w3.org/2000/svg">
<path d="M22.6587 0.444336C10.5083 0.444336 0.666992 10.054 0.666992 21.9185C0.666992 31.4209 6.96211 39.4469 15.7038 42.2922C16.8034 42.4801 17.2157 41.8359 17.2157 41.2722C17.2157 40.7622 17.1882 39.0711 17.1882 37.2726C11.6628 38.2658 10.2334 35.9573 9.79353 34.7494C9.54613 34.132 8.47403 32.2262 7.53939 31.7162C6.76968 31.3135 5.6701 30.3203 7.5119 30.2935C9.24374 30.2666 10.4808 31.8504 10.8931 32.4946C12.8724 35.7426 16.0337 34.8299 17.2982 34.2662C17.4906 32.8704 18.0679 31.9309 18.7002 31.394C13.807 30.8572 8.69395 29.005 8.69395 20.7911C8.69395 18.4558 9.54613 16.5231 10.9481 15.02C10.7282 14.4831 9.95847 12.282 11.168 9.32929C11.168 9.32929 13.0098 8.76559 17.2157 11.5304C18.9751 11.0472 20.8443 10.8056 22.7136 10.8056C24.5829 10.8056 26.4522 11.0472 28.2116 11.5304C32.4175 8.73875 34.2593 9.32929 34.2593 9.32929C35.4688 12.282 34.6991 14.4831 34.4792 15.02C35.8811 16.5231 36.7333 18.429 36.7333 20.7911C36.7333 29.0319 31.5928 30.8572 26.6996 31.394C27.4968 32.0651 28.1841 33.3536 28.1841 35.3668C28.1841 38.2389 28.1566 40.5474 28.1566 41.2722C28.1566 41.8359 28.5689 42.5069 29.6685 42.2922C34.0345 40.8534 37.8283 38.1137 40.516 34.4588C43.2036 30.804 44.6496 26.418 44.6503 21.9185C44.6503 10.054 34.8091 0.444336 22.6587 0.444336Z" fill="#DA5AA0"/>
</svg>
