<svg width="64" height="90" viewBox="0 0 64 90" fill="none" xmlns="http://www.w3.org/2000/svg">
<path d="M5.94141 0H9.98437V4.00781H13.7109V0H17.7539V12.1289H13.7109V8.08594H10.0195V12.1289H5.94141V0ZM23.0977 4.04297H19.5293V0H30.7266V4.04297H27.1406V12.1289H23.0977V4.04297ZM32.502 0H36.7383L39.3398 4.27148L41.9414 0H46.1777V12.1289H42.1348V6.11719L39.3047 10.4766L36.4746 6.11719V12.1289H32.502V0ZM48.1816 0H52.2246V8.12109H57.9551V12.1289H48.1816V0Z" fill="#DA5AA0"/>
<path d="M5.80078 82.793L0 17.6836H63.7734L57.9727 82.7578L31.834 90" fill="#DA5AA0"/>
<path d="M31.8867 84.4629V23.0273H57.9551L52.9805 78.5742L31.8867 84.4629Z" fill="#E798DA"/>
<path d="M11.8477 30.9904H31.8867L34.8664 34.9806L31.8867 38.9708H20.6016L21.3398 47.1447H31.8867L34.8664 51.2841L31.8867 55.1075H14.0273L11.8477 30.9904ZM14.3789 59.1154H22.3945L22.957 65.4962L31.8867 67.8868L35.2489 71.87L31.8867 76.2189L15.5039 71.6486L14.3789 59.1154Z" fill="#EBEBEB"/>
<path d="M51.8555 30.9904H31.8516V38.9708H51.1172L51.8555 30.9904ZM50.3965 47.1447H31.8516V55.1251H41.6953L40.7637 65.4962L31.8516 67.8868V76.1837L48.1992 71.6486L50.3965 47.1447Z" fill="white"/>
</svg>
