<svg width="58" height="58" viewBox="0 0 58 58" fill="none" xmlns="http://www.w3.org/2000/svg">
<g clip-path="url(#clip0_53_1861)">
<path d="M0 0H58V58H0V0Z" fill="#DA5AA0"/>
<path d="M38.9613 45.3127C40.1296 47.2202 41.6496 48.6223 44.3379 48.6223C46.5961 48.6223 48.0388 47.4936 48.0388 45.934C48.0388 44.0651 46.5566 43.4032 44.0709 42.3159L42.7083 41.7313C38.7753 40.0557 36.1626 37.9566 36.1626 33.5192C36.1626 29.4315 39.2771 26.3198 44.1445 26.3198C47.6098 26.3198 50.1011 27.5258 51.8962 30.6836L47.6521 33.4087C46.7177 31.7332 45.7096 31.0731 44.1445 31.0731C42.5481 31.0731 41.5363 32.0858 41.5363 33.4087C41.5363 35.0438 42.549 35.7057 44.8874 36.7185L46.2499 37.3021C50.8808 39.2879 53.4953 41.3124 53.4953 45.864C53.4953 50.771 49.6406 53.4593 44.4638 53.4593C39.4022 53.4593 36.1321 51.0472 34.532 47.8857L38.9613 45.3127ZM19.708 45.7849C20.5642 47.304 21.3431 48.5883 23.2157 48.5883C25.0063 48.5883 26.1359 47.8877 26.1359 45.1636V26.6311H31.5861V45.2371C31.5861 50.8806 28.2774 53.4492 23.4477 53.4492C19.0839 53.4492 16.5568 51.1908 15.2715 48.4708L19.708 45.7849Z" fill="white"/>
</g>
<defs>
<clipPath id="clip0_53_1861">
<rect width="58" height="58" fill="white"/>
</clipPath>
</defs>
</svg>
