<svg width="67" height="65" viewBox="0 0 67 65" fill="none" xmlns="http://www.w3.org/2000/svg">
<path fill-rule="evenodd" clip-rule="evenodd" d="M16.6289 10.7742C16.0029 10.7722 15.3794 10.8517 14.7739 11.0105V11.0932H14.8637C15.2974 11.7478 15.7808 12.3679 16.3099 12.9482C16.6738 13.6712 16.9904 14.3919 17.3519 15.115C17.3968 15.0701 17.4417 15.0229 17.4417 15.0229C17.7774 14.7564 18.0401 14.4093 18.2054 14.0138C18.3707 13.6184 18.4331 13.1876 18.3869 12.7615C18.189 12.4563 18.0076 12.1408 17.8434 11.8163C17.5717 11.365 16.9833 11.1381 16.6218 10.7766" fill="#DA5AA0"/>
<path fill-rule="evenodd" clip-rule="evenodd" d="M61.5139 50.2077C58.5331 49.9983 55.5422 50.4302 52.7424 51.4743C52.0643 51.746 50.982 51.746 50.8875 52.6038C51.2514 52.9653 51.2939 53.549 51.6129 54.0523C52.2318 55.1001 53.0273 56.0331 53.9641 56.8099C54.9093 57.533 55.8545 58.2537 56.8588 58.887C58.6192 59.9763 60.6112 60.6072 62.3267 61.6918C63.3239 62.3251 64.3164 63.138 65.3135 63.8185C65.8098 64.18 66.124 64.7637 66.7573 65V64.8629C66.5713 64.3608 66.3412 63.8761 66.0697 63.4144C65.6184 62.9655 65.1647 62.5567 64.711 62.1053C63.3855 60.3527 61.7997 58.8131 60.0086 57.5401C58.5601 56.5429 55.3937 55.1771 54.8101 53.523L54.7179 53.4308C55.7778 53.2806 56.8224 53.0371 57.8394 52.703C59.3753 52.2966 60.7766 52.3887 62.3574 51.9941C63.0829 51.8122 64.3943 51.3608 64.3943 51.3608V50.6519C63.5862 49.8485 63.0073 48.7734 62.1566 48.0148C59.8423 45.9946 57.3759 44.1555 54.7793 42.5138C53.3923 41.6182 51.6035 41.0417 50.1266 40.2784C49.5926 40.009 48.7088 39.8767 48.3851 39.4277C47.6506 38.3502 47.0357 37.1957 46.5514 35.9849C45.2565 33.5274 44.0017 30.8028 42.8864 28.2036C42.2262 26.4616 41.4649 24.7597 40.6061 23.1066C36.4622 16.0613 30.4809 10.2751 23.302 6.36719C21.4906 5.49041 19.5647 4.87312 17.5812 4.53351C16.4611 4.48625 15.3458 4.39882 14.2281 4.35629C13.5066 3.88361 12.8203 3.35922 12.1747 2.78726C9.61791 1.16862 3.0488 -2.3097 1.16786 2.29576C-0.0372601 5.2046 2.95901 8.06381 3.98691 9.54068C4.85364 10.582 5.61731 11.705 6.26719 12.8938C6.58147 13.6546 6.67126 14.4604 6.97609 15.2567C7.63202 17.301 8.41086 19.3037 9.30836 21.254C9.78838 22.2179 10.3414 23.1438 10.9624 24.0234C11.324 24.5173 11.9478 24.7323 12.0825 25.5476C11.587 26.6127 11.2403 27.741 11.0522 28.9006C10.2711 31.3674 9.98368 33.9638 10.2063 36.5416C10.4289 39.1195 11.1571 41.6282 12.3495 43.9245C13.0584 45.0422 14.7645 47.5021 17.0448 46.5616C19.0557 45.7582 18.6091 43.2085 19.1904 40.9755C19.3227 40.4344 19.2353 40.0799 19.5023 39.7231V40.1579C19.5023 40.1579 20.6436 42.665 21.2107 43.9387C22.753 46.2757 24.6689 48.3433 26.8819 50.0588C27.7572 50.8231 28.4624 51.7625 28.9519 52.8164V53.6269H29.9609C29.9399 53.2615 29.8385 52.9052 29.6642 52.5833C29.4898 52.2615 29.2466 51.9821 28.9519 51.7649C28.1245 50.9133 27.3667 49.9966 26.6858 49.0238C24.8361 46.3896 23.205 43.6086 21.8086 40.7085C21.0997 39.2907 20.5018 37.7359 19.9347 36.3204C19.6748 35.7746 19.6748 34.9499 19.2376 34.6663C18.4304 35.6214 17.73 36.6617 17.1488 37.7689C16.4431 40.0068 16.0325 42.3271 15.9271 44.6712C15.7546 44.7185 15.8397 44.6712 15.7546 44.761C14.3628 44.3947 13.8831 42.8895 13.3585 41.6135C12.0034 37.6781 11.8667 33.4254 12.9663 29.411C13.2687 28.454 14.5802 25.4389 14.0556 24.5244C13.7933 23.6524 12.9214 23.1539 12.444 22.4662C11.8347 21.5412 11.3103 20.5628 10.8774 19.5432C9.84003 17.0006 9.31545 14.165 8.18594 11.6036C7.56069 10.3717 6.83267 9.19465 6.00963 8.08508C5.0992 6.97669 4.29612 5.78433 3.61119 4.52406C3.3938 4.02074 3.08897 3.19842 3.43633 2.65021C3.45977 2.49793 3.53219 2.35743 3.64262 2.24999C3.75305 2.14254 3.89548 2.074 4.04835 2.05474C4.61074 1.55378 6.22466 2.19179 6.78941 2.4659C8.30729 3.06345 9.75309 3.82994 11.0995 4.75091C11.7092 5.20932 13.1458 6.36955 13.1458 6.36955H13.5712C15.0173 6.68383 16.6431 6.45698 18.0042 6.86578C20.2958 7.62971 22.4829 8.67758 24.5142 9.98492C30.5012 13.8015 35.3684 19.1383 38.6189 25.4507C39.1623 26.488 39.3916 27.4403 39.8878 28.5226C40.833 30.7438 42.0145 33.0122 42.9597 35.172C43.7935 37.3088 44.8719 39.3419 46.1733 41.2307C46.8491 42.1759 49.5642 42.6769 50.7859 43.1731C51.8468 43.5401 52.8879 43.9621 53.905 44.4373C55.4433 45.3825 56.9769 46.4718 58.4254 47.5092C59.1461 48.0527 61.4075 49.1822 61.5446 50.0872" fill="#DA5AA0"/>
</svg>
