<svg width="56" height="63" viewBox="0 0 56 63" fill="none" xmlns="http://www.w3.org/2000/svg">
<path d="M27.9342 63C27.0842 63.0003 26.2492 62.7768 25.5131 62.352L17.809 57.7912C16.6592 57.1477 17.2195 56.9204 17.5998 56.7877C18.8226 56.4099 19.9934 55.8808 21.0851 55.2126C21.1764 55.1704 21.2771 55.1521 21.3775 55.1596C21.4779 55.1671 21.5747 55.2 21.6588 55.2554L27.5786 58.7722C27.6889 58.8305 27.8117 58.861 27.9364 58.861C28.0611 58.861 28.1839 58.8305 28.2942 58.7722L51.3795 45.4475C51.4875 45.3828 51.5769 45.2911 51.6388 45.1814C51.7007 45.0718 51.7331 44.9479 51.7327 44.822V18.1681C51.7328 18.0402 51.6999 17.9144 51.6373 17.8029C51.5746 17.6914 51.4843 17.5978 51.375 17.5314L28.2897 4.21793C28.1808 4.15662 28.058 4.12442 27.933 4.12442C27.8081 4.12442 27.6853 4.15662 27.5764 4.21793L4.50458 17.5359C4.39453 17.601 4.30315 17.6934 4.23929 17.8041C4.17543 17.9149 4.14125 18.0403 4.14007 18.1681V44.8107C4.14039 44.9364 4.1741 45.0597 4.23775 45.168C4.30141 45.2764 4.39272 45.3658 4.50233 45.4273L10.8339 49.0813C14.2652 50.7958 16.3667 48.7753 16.3667 46.7458V20.4407C16.3667 20.352 16.3842 20.2642 16.4181 20.1823C16.452 20.1004 16.5018 20.026 16.5644 19.9634C16.6271 19.9007 16.7015 19.851 16.7834 19.817C16.8653 19.7831 16.9531 19.7656 17.0418 19.7656H19.9668C20.1458 19.7656 20.3175 19.8368 20.4441 19.9634C20.5707 20.0899 20.6418 20.2616 20.6418 20.4407V46.748C20.6418 51.3268 18.1488 53.9481 13.8062 53.9481C11.9328 53.9808 10.0887 53.4798 8.48938 52.5036L2.42105 49.0228C1.68436 48.5938 1.07309 47.9791 0.648267 47.24C0.22344 46.5009 -8.15558e-05 45.6632 1.60018e-05 44.8107V18.1681C-0.0021737 17.3143 0.220403 16.4749 0.645378 15.7344C1.07035 14.9939 1.68276 14.3782 2.42105 13.9493L25.5086 0.620134C26.2523 0.213255 27.0864 0 27.9342 0C28.7819 0 29.616 0.213255 30.3597 0.620134L53.445 13.9493C54.1816 14.3775 54.793 14.9914 55.2182 15.7297C55.6435 16.468 55.8676 17.3049 55.8683 18.1569V44.8107C55.867 45.6632 55.6427 46.5006 55.2176 47.2395C54.7924 47.9784 54.1814 48.5932 53.445 49.0228L30.3597 62.352C29.6222 62.7775 28.7856 63.001 27.9342 63Z" fill="#DA5AA0"/>
<path d="M23.5557 35.894C23.5557 35.715 23.6268 35.5433 23.7534 35.4167C23.88 35.2901 24.0517 35.219 24.2307 35.219H27.2165C27.376 35.2195 27.5302 35.2765 27.6517 35.3799C27.7732 35.4833 27.8542 35.6264 27.8802 35.7838C28.3302 38.8236 29.6802 40.3558 35.7846 40.3558C40.6469 40.3558 42.7192 39.2556 42.7192 36.6748C42.7192 35.1875 42.1319 34.0827 34.5741 33.3425C28.256 32.717 24.3499 31.3175 24.3499 26.2684C24.3499 21.6108 28.2762 18.832 34.8576 18.832C42.2534 18.832 45.9142 21.3993 46.3777 26.9074C46.3848 26.9994 46.373 27.0918 46.3429 27.179C46.3129 27.2662 46.2653 27.3463 46.2031 27.4144C46.1409 27.4825 46.0654 27.5372 45.9813 27.5749C45.8972 27.6127 45.8062 27.6329 45.714 27.6342H42.7079C42.5571 27.632 42.4114 27.5795 42.2939 27.4849C42.1765 27.3903 42.0941 27.259 42.0599 27.1121C41.3422 23.9149 39.5849 22.8933 34.8598 22.8933C29.5497 22.8933 28.9332 24.7429 28.9332 26.1289C28.9332 27.8074 29.6622 28.2979 36.8308 29.2452C43.9252 30.1834 47.2957 31.511 47.2957 36.497C47.2957 41.5281 43.1017 44.4081 35.7868 44.4081C25.6729 44.4216 23.5557 39.7843 23.5557 35.894Z" fill="#DA5AA0"/>
</svg>
