<svg width="54" height="53" viewBox="0 0 54 53" fill="none" xmlns="http://www.w3.org/2000/svg">
<path d="M9.45583 0H43.9417C49.1702 0 53.3974 4.22726 53.3974 9.45583V42.6068C53.3974 47.8352 49.1702 52.0626 43.9416 52.0626H9.45583C4.22726 52.0625 0 47.8352 0 42.6067V9.45583C0 4.22726 4.22726 0 9.45583 0Z" fill="#DA5AA0"/>
<path d="M12.0142 36.5107V13.6165C12.0142 13.4608 12.0809 13.3718 12.2366 13.3718C12.6149 13.3718 12.9708 13.3718 13.4826 13.3496C14.0166 13.3273 14.5728 13.3273 15.1735 13.305C15.7742 13.2827 16.4194 13.2828 17.1091 13.2605C17.7988 13.2383 18.4663 13.2383 19.1337 13.2383C20.9581 13.2383 22.4711 13.4607 23.7171 13.928C24.8295 14.3062 25.853 14.9292 26.6985 15.7523C27.4105 16.4643 27.9666 17.3321 28.3226 18.2887C28.6563 19.2232 28.8344 20.1798 28.8344 21.181C28.8344 23.0945 28.3893 24.6741 27.4994 25.9201C26.6095 27.166 25.3635 28.1005 23.9173 28.6345C22.4043 29.1907 20.7357 29.3909 18.9113 29.3909C18.3773 29.3909 18.0214 29.3909 17.7988 29.3687C17.5764 29.3465 17.2648 29.3465 16.8421 29.3465V36.4884C16.8644 36.6441 16.7532 36.7776 16.5974 36.7999H12.2811C12.1031 36.7999 12.0142 36.7109 12.0142 36.5107ZM16.8645 17.6659V25.1415C17.176 25.1637 17.4652 25.1861 17.7322 25.1861H18.9114C20.4477 25.1861 22.222 24.825 23.2944 23.6065C24.2172 22.5577 24.2199 20.4779 23.4724 19.3347C22.5851 17.9775 20.8107 17.5843 19.2896 17.6215C18.7111 17.6215 18.1994 17.6215 17.7766 17.6437C17.3317 17.6214 17.0202 17.6436 16.8645 17.6659ZM42.7177 23.7843C42.0502 23.4283 41.3382 23.1836 40.5818 23.0278C39.7586 22.8498 38.9353 22.7386 38.0899 22.7386C37.6449 22.7164 37.1777 22.7832 36.755 22.8944C36.4658 22.9611 36.221 23.1168 36.0653 23.3394C35.954 23.5174 35.8873 23.7398 35.8873 23.9401C35.8873 24.1403 35.9763 24.3406 36.1098 24.5186C36.31 24.7634 36.577 24.9636 36.8662 25.1193C37.3779 25.3863 37.9119 25.6311 38.4459 25.8535C39.6473 26.254 40.8042 26.8102 41.8722 27.4777C42.6064 27.9449 43.2071 28.5678 43.6298 29.3244C43.9858 30.0364 44.1638 30.815 44.1416 31.616C44.1638 32.6617 43.8524 33.7073 43.2739 34.575C42.6509 35.465 41.7832 36.1548 40.782 36.5552C39.6919 37.0225 38.3569 37.2672 36.755 37.2672C35.7316 37.2672 34.7304 37.1783 33.7292 36.978C32.9445 36.8424 32.1813 36.603 31.4598 36.266C31.3041 36.1771 31.1928 36.0213 31.215 35.8433V31.972C31.215 31.9053 31.2372 31.8163 31.304 31.7718C31.3707 31.7272 31.4375 31.7496 31.5042 31.794C32.3719 32.3058 33.2842 32.6617 34.2631 32.8842C35.1085 33.1066 35.9985 33.2179 36.8884 33.2179C37.7339 33.2179 38.3346 33.1066 38.7351 32.9064C39.091 32.7507 39.3358 32.3724 39.3358 31.9719C39.3358 31.6604 39.1578 31.3712 38.8018 31.082C38.4459 30.7928 37.7117 30.4591 36.6214 30.0363C35.4867 29.6358 34.441 29.1018 33.4621 28.4343C32.7724 27.9449 32.1939 27.2996 31.7712 26.5432C31.4153 25.8312 31.2372 25.0526 31.2595 24.2738C31.2595 23.3172 31.5264 22.4049 32.0159 21.5817C32.5721 20.6918 33.3953 19.9798 34.352 19.5348C35.3978 19.0008 36.7104 18.7561 38.2901 18.7561C39.2023 18.7561 40.1368 18.8228 41.0489 18.9563C41.7164 19.0453 42.3616 19.2233 42.9624 19.4681C43.0513 19.4903 43.1404 19.5793 43.1848 19.6683C43.207 19.7573 43.2293 19.8463 43.2293 19.9353V23.5618C43.2293 23.6508 43.1848 23.7398 43.1181 23.7843C42.9179 23.8288 42.8066 23.8288 42.7177 23.7843Z" fill="white"/>
</svg>
