<svg width="61" height="55" viewBox="0 0 61 55" fill="none" xmlns="http://www.w3.org/2000/svg">
<path d="M30.5001 32.5313C33.5081 32.5313 35.9466 30.0928 35.9466 27.0849C35.9466 24.0769 33.5081 21.6384 30.5001 21.6384C27.4922 21.6384 25.0537 24.0769 25.0537 27.0849C25.0537 30.0928 27.4922 32.5313 30.5001 32.5313Z" fill="#DA5AA0"/>
<path d="M30.5 39.5725C23.9537 39.7308 17.4238 38.8484 11.1543 36.9582C8.25814 36.0401 5.55696 34.5939 3.18725 32.6926C2.28299 32.043 1.52995 31.2056 0.979795 30.2376C0.429642 29.2697 0.0953988 28.1942 0 27.0849C0 23.4837 3.95629 19.9544 10.5835 17.6452C17.0206 15.5989 23.7463 14.6072 30.5 14.7085C37.1636 14.6153 43.7992 15.5891 50.1551 17.5929C52.9443 18.4821 55.5539 19.8584 57.8629 21.6581C58.7517 22.2773 59.4934 23.0845 60.0355 24.0223C60.5777 24.9601 60.9069 26.0057 61 27.0849C61 30.8277 56.5775 34.6206 49.4536 36.9778C43.3055 38.8064 36.9133 39.6815 30.5 39.5725ZM30.5 17.314C24.0386 17.2277 17.6047 18.1704 11.4397 20.1069C5.33968 22.2354 2.60557 25.146 2.60557 27.0784C2.60557 29.1001 5.54446 32.2786 11.9974 34.4855C17.9952 36.2847 24.2401 37.1222 30.5 36.9669C36.6357 37.0766 42.7521 36.2464 48.6366 34.5051C55.3357 32.2852 58.3857 29.1023 58.3857 27.0849C58.2758 26.3926 58.0235 25.7306 57.6448 25.1408C57.266 24.551 56.7691 24.0461 56.1854 23.658C54.1195 22.0614 51.7883 20.8416 49.2989 20.0547C43.2186 18.1457 36.8723 17.2205 30.5 17.314Z" fill="#DA5AA0"/>
<path d="M18.1258 54.2496C17.1095 54.273 16.1052 54.0264 15.2152 53.5351C12.0955 51.7356 11.0149 46.5462 12.3242 39.651C13.7679 33.0523 16.2692 26.7306 19.7314 20.9306C22.979 15.1118 27.1367 9.85016 32.0468 5.34506C34.2105 3.37281 36.7065 1.79953 39.4191 0.698165C40.4003 0.238354 41.4706 0 42.5541 0C43.6376 0 44.7079 0.238354 45.6891 0.698165C48.933 2.56738 50.007 8.29267 48.4929 15.641C47.0047 21.8816 44.5683 27.8572 41.2687 33.3593C38.1354 39.1093 34.1086 44.3252 29.3389 48.8119C27.0967 50.8615 24.4945 52.4783 21.6638 53.5808C20.5305 54.0014 19.3344 54.2275 18.1258 54.2496ZM21.9884 22.2246C18.6859 27.7785 16.2885 33.8227 14.8862 40.1303C13.6815 46.4808 14.8383 50.2999 16.5202 51.2715C18.263 52.2802 22.4938 51.3238 27.6309 46.836C32.1842 42.5375 36.0276 37.5448 39.0183 32.0435C42.1792 26.7833 44.5163 21.0703 45.9483 15.1029C47.3731 8.18592 46.1422 3.95077 44.395 2.94427C43.7401 2.69336 43.0403 2.58104 42.3399 2.61441C41.6394 2.64779 40.9534 2.82613 40.3254 3.13816C37.9109 4.13453 35.691 5.54904 33.7679 7.31667C29.0767 11.632 25.1052 16.6691 22.0036 22.2377L21.9884 22.2246Z" fill="#DA5AA0"/>
<path d="M42.8677 54.2779C39.9158 54.2779 36.1665 52.4914 32.2625 49.1343C27.2663 44.5882 23.0383 39.264 19.7422 33.3679C16.3234 27.6478 13.8419 21.4175 12.3917 14.9133C11.7628 12.0517 11.6462 9.10126 12.0475 6.19898C12.1403 5.12235 12.4681 4.07917 13.0079 3.14302C13.5477 2.20687 14.2863 1.40053 15.1716 0.780876C18.4111 -1.09487 23.9076 0.833162 29.5175 5.81338C34.1809 10.2189 38.1411 15.3135 41.26 20.9196C44.6766 26.5062 47.1842 32.6001 48.6889 38.9734C49.3449 41.94 49.4461 45.0024 48.9873 48.0058C48.8782 49.1134 48.5308 50.1843 47.969 51.145C47.4072 52.1058 46.6443 52.9337 45.7326 53.572C44.8571 54.0572 43.8684 54.3008 42.8677 54.2779ZM21.997 32.0564C25.1591 37.6912 29.1978 42.7867 33.9617 47.1518C38.8613 51.3673 42.7479 52.2736 44.4189 51.2911C46.1617 50.278 47.4471 46.1431 46.1225 39.4527C44.6713 33.3678 42.2662 27.551 38.9964 22.218C36.0201 16.8525 32.2401 11.9741 27.7877 7.7523C22.5068 3.06402 18.2237 2.01613 16.4787 3.02698C15.9348 3.46898 15.4885 4.01894 15.1679 4.64215C14.8473 5.26536 14.6594 5.94827 14.616 6.64777C14.2696 9.2361 14.3825 11.8652 14.9494 14.4144C16.3443 20.6345 18.7243 26.5918 21.9992 32.0608L21.997 32.0564Z" fill="#DA5AA0"/>
</svg>
