<svg width="71" height="53" viewBox="0 0 71 53" fill="none" xmlns="http://www.w3.org/2000/svg">
<path d="M61.1553 30.174C58.9573 30.1769 56.7887 30.6795 54.8135 31.6438C54.1951 30.6176 53.7175 29.5128 53.3936 28.3592C53.2075 27.4549 53.1645 26.527 53.2661 25.6094C53.4798 24.5997 53.757 23.6045 54.096 22.6297C54.0835 22.5023 53.9436 21.8998 52.5362 21.8798C51.1289 21.8598 49.9165 22.1473 49.7865 22.5198C49.5421 23.2001 49.3458 23.8967 49.1991 24.6045C48.0343 27.478 46.6006 30.235 44.917 32.8387C43.9737 31.2924 43.5858 29.4707 43.8171 27.6742C44.0308 26.6645 44.308 25.6693 44.647 24.6945C44.6345 24.567 44.4945 23.9646 43.0872 23.9446C41.6798 23.9246 40.4674 24.2121 40.3375 24.5845C40.2075 24.957 40.0425 25.8344 39.75 26.6693C39.4575 27.5042 36.0429 35.1335 35.148 37.1008C34.688 38.1007 34.2906 38.9156 34.0106 39.4655C33.9973 39.5012 33.9806 39.5356 33.9606 39.568C33.7106 40.0405 33.5781 40.2979 33.5781 40.2979V40.3104C33.3857 40.6554 33.1807 40.9754 33.0782 40.9754C32.8994 40.2612 32.908 39.513 33.1032 38.8031C33.6031 36.1559 34.828 32.0413 34.8155 31.8988C34.8155 31.8213 35.0455 31.1064 34.0231 30.7364C33.786 30.6236 33.5197 30.587 33.2609 30.6318C33.0022 30.6766 32.7637 30.8004 32.5782 30.9864C32.4883 30.9864 32.4258 31.2039 32.4258 31.2039C32.4258 31.2039 33.5382 26.5768 30.3035 26.5768C29.0438 26.8302 27.8476 27.3329 26.7851 28.0554C25.7226 28.7779 24.8153 29.7056 24.1166 30.7839C23.2467 31.2564 21.3944 32.2663 19.4121 33.3536C18.6622 33.7761 17.8772 34.1986 17.1498 34.6035C17.0998 34.5535 17.0473 34.4885 16.9973 34.4385C13.0602 30.244 5.82348 27.2843 6.13595 21.6723C6.25094 19.6276 6.95337 14.2581 20.032 7.73627C30.7959 2.43181 39.3626 3.90166 40.8449 7.16133C42.9672 11.8158 36.2554 20.4575 25.134 21.7098C23.9037 21.9595 22.6329 21.9293 21.4158 21.6217C20.1986 21.3141 19.0662 20.7368 18.1022 19.9325C17.5148 19.2926 17.4248 19.2551 17.2073 19.3826C16.8499 19.5751 17.0798 20.15 17.2073 20.4825C17.6316 21.2503 18.2054 21.9252 18.895 22.4675C19.5845 23.0098 20.3757 23.4083 21.2219 23.6396C25.597 24.5851 30.1586 24.133 34.2631 22.3473C41.0124 19.74 46.2618 12.4908 44.722 6.4189C43.1747 0.257032 32.9482 -1.77526 23.2692 1.66939C17.2067 3.70936 11.605 6.9226 6.78338 11.1259C1.45143 16.1129 0.609013 20.445 0.953978 22.2623C2.20385 28.7066 11.0804 32.8987 14.6326 36.0109C14.4526 36.1134 14.2876 36.2034 14.1476 36.2783C12.3703 37.1608 5.596 40.7029 3.89868 44.4475C1.98137 48.6971 4.20615 51.7343 5.676 52.1442C7.89079 52.6744 10.2158 52.4998 12.3266 51.6447C14.4373 50.7896 16.2284 49.2968 17.4498 47.3747C18.4898 45.7804 19.1291 43.9583 19.3133 42.0637C19.4974 40.1691 19.2208 38.258 18.5072 36.4933C18.4951 36.4648 18.4782 36.4386 18.4572 36.4158L19.8495 35.5984C20.757 35.061 21.6519 34.5635 22.4193 34.1536C21.8989 35.6545 21.5934 37.2216 21.5119 38.8081C21.3352 41.2398 22.0794 43.649 23.5967 45.5574C23.8275 45.7561 24.0956 45.9071 24.3852 46.0015C24.6749 46.0959 24.9803 46.1319 25.284 46.1073C26.7838 46.1073 27.4713 44.8575 28.2237 43.3726C29.1436 41.5578 29.9735 39.448 29.9735 39.448C29.9735 39.448 28.9386 45.1499 31.7508 45.1499C32.7732 45.1499 33.8081 43.8201 34.2706 43.1501V43.1626C34.2706 43.1626 34.2956 43.1251 34.3481 43.0352L34.5131 42.7677V42.7427C34.923 42.0278 35.8429 40.4029 37.2103 37.7057C38.9751 34.2286 40.6749 29.8815 40.6749 29.8815C40.8389 30.8368 41.0652 31.7804 41.3524 32.7062C41.7641 33.8284 42.251 34.9216 42.8097 35.9784C42.3997 36.5533 42.1448 36.8733 42.1448 36.8733L42.1573 36.8858C41.8248 37.3207 41.4673 37.7932 41.0699 38.2531C39.8874 39.5532 38.7902 40.9285 37.7852 42.3702C37.6359 42.6124 37.5846 42.9024 37.6417 43.1811C37.6988 43.4598 37.8601 43.7062 38.0927 43.8701C38.6189 44.1439 39.2187 44.2428 39.805 44.1525C40.6885 44.1027 41.5573 43.9041 42.3747 43.5651C43.1647 43.2871 43.9099 42.8955 44.587 42.4027C45.285 41.9191 45.8469 41.2641 46.2186 40.5006C46.5902 39.7371 46.7592 38.8909 46.7093 38.0432C46.6307 36.9754 46.3579 35.9309 45.9044 34.961C46.0319 34.781 46.1544 34.6035 46.2743 34.4235C47.6955 32.3022 48.9765 30.0902 50.109 27.8017C50.2729 28.7571 50.4992 29.7006 50.7864 30.6264C51.126 31.5962 51.544 32.5367 52.0363 33.4386C50.4013 34.6965 49.1135 36.35 48.2941 38.2431C47.4892 40.5704 48.1142 41.6178 49.294 41.8603C49.9397 41.9048 50.5852 41.7726 51.1614 41.4778C52.0084 41.1994 52.8065 40.7894 53.5261 40.2629C54.2849 39.8151 54.9205 39.1857 55.3756 38.4312C55.8307 37.6767 56.0911 36.821 56.1333 35.9409C56.0766 35.0624 55.8782 34.1988 55.5459 33.3836C57.7034 32.5407 60.0427 32.272 62.3352 32.6037C68.4196 33.3187 69.622 37.1158 69.392 38.7156C69.2841 39.2828 69.0561 39.8202 68.7232 40.292C68.3904 40.7636 67.9604 41.1586 67.4622 41.4503C67.0397 41.7178 66.8997 41.8078 66.9372 42.0003C66.9872 42.2827 67.1872 42.2677 67.5497 42.2177C68.4667 41.9327 69.2758 41.3764 69.8702 40.6222C70.4646 39.8681 70.8165 38.9514 70.8793 37.9932C71.0718 34.2436 67.4922 30.1315 61.1628 30.169L61.1553 30.174ZM14.2101 45.9924C12.1903 48.1921 9.37812 49.022 8.16324 48.3196C6.85837 47.5697 7.37082 44.32 9.85057 41.9903C11.3215 40.6661 12.9114 39.4804 14.6001 38.4481C14.8951 38.2681 15.33 38.0132 15.85 37.6982L15.9899 37.6207L16.2974 37.4282C16.7404 38.9126 16.7806 40.488 16.4138 41.993C16.047 43.498 15.2864 44.8783 14.2101 45.9924ZM28.9111 35.9934C28.2087 37.7057 26.7388 42.0928 25.8439 41.8478C25.0765 41.6428 24.5941 38.3181 25.6915 35.0335C26.2455 33.4523 27.0526 31.9715 28.0812 30.6489C29.1811 29.4215 30.396 29.0116 30.6884 29.5115C30.4216 31.7485 29.8226 33.9332 28.9111 35.9934ZM41.0424 41.7978C40.7474 41.9503 40.4674 42.0478 40.34 41.9778C40.25 41.9278 40.4674 41.7278 40.4674 41.7278C40.4674 41.7278 41.9898 40.0905 42.5897 39.3505C42.9347 38.9156 43.3396 38.4056 43.7796 37.8282V37.9932C43.7796 39.948 41.8873 41.2653 41.0449 41.8028L41.0424 41.7978ZM50.4014 39.663C50.184 39.5105 50.2214 38.9981 50.9514 37.4007C51.4589 36.3749 52.1679 35.4618 53.0362 34.716C53.1692 35.0944 53.2385 35.4923 53.2411 35.8934C53.251 36.7472 52.978 37.5802 52.4648 38.2625C51.9515 38.9449 51.2269 39.4382 50.4039 39.6655L50.4014 39.663Z" fill="#DA5AA0"/>
</svg>
