<svg width="54" height="53" viewBox="0 0 54 53" fill="none" xmlns="http://www.w3.org/2000/svg">
<path d="M50.0401 52.2236H3.90054C3.1721 52.2236 2.58154 51.6331 2.58154 50.9046V2.81666C2.58154 1.68989 3.49496 0.776367 4.62184 0.776367H49.319C50.4457 0.776367 51.3592 1.68979 51.3592 2.81666V50.9046C51.3591 51.6331 50.7686 52.2236 50.0401 52.2236Z" fill="#F9B5DA"/>
<path d="M51.3591 8.16863V2.81666C51.3591 1.68989 50.4457 0.776367 49.3188 0.776367H4.62184C3.49507 0.776367 2.58154 1.68979 2.58154 2.81666V8.16863H51.3591Z" fill="#DA5AA0"/>
<path d="M49.3188 0.776367H47.0115V47.5921C47.0115 48.3206 46.4209 48.9111 45.6925 48.9111H2.58154V50.9046C2.58154 51.6331 3.1721 52.2236 3.90054 52.2236H50.0401C50.7686 52.2236 51.3591 51.6331 51.3591 50.9046V2.81666C51.3591 1.68979 50.4457 0.776367 49.3188 0.776367Z" fill="#FFA1AC"/>
<path d="M49.3192 0.776367H46.4395C46.7932 1.17718 47.0118 1.72126 47.0118 2.32206V8.16863H51.3594V2.81666C51.3594 1.68979 50.446 0.776367 49.3192 0.776367Z" fill="#E798DA"/>
<path d="M22.0725 35.2256H8.9642C7.98049 35.2256 7.18311 34.4282 7.18311 33.4445V15.6219C7.18311 14.6382 7.98049 13.8408 8.9642 13.8408H22.0725C23.0562 13.8408 23.8536 14.6382 23.8536 15.6219V33.4445C23.8536 34.4282 23.0562 35.2256 22.0725 35.2256Z" fill="#DA5AA0"/>
<path d="M18.3973 15.8534H12.325C12.1012 15.8534 11.8865 15.7645 11.7282 15.6062C11.5699 15.4479 11.481 15.2332 11.481 15.0093V12.877C11.481 12.6532 11.5699 12.4385 11.7282 12.2802C11.8865 12.1219 12.1012 12.033 12.325 12.033H18.3973C18.6211 12.033 18.8358 12.1219 18.9941 12.2802C19.1524 12.4385 19.2413 12.6532 19.2413 12.877V15.0093C19.2413 15.1202 19.2195 15.23 19.1771 15.3324C19.1347 15.4348 19.0725 15.5278 18.9941 15.6062C18.9157 15.6846 18.8227 15.7468 18.7203 15.7892C18.6179 15.8316 18.5081 15.8534 18.3973 15.8534Z" fill="#FE7AB6"/>
<path d="M45.0871 48.6106H8.85519C7.93173 48.6106 7.18311 47.862 7.18311 46.9385V41.9253C7.18311 41.0018 7.93173 40.2532 8.85519 40.2532H45.0871C46.0106 40.2532 46.7592 41.0018 46.7592 41.9253V46.9385C46.7592 47.862 46.0106 48.6106 45.0871 48.6106Z" fill="#DA5AA0"/>
<path d="M34.0577 22.2374H29.1899C28.2822 22.2374 27.5464 21.5016 27.5464 20.5939V15.726C27.5464 14.8183 28.2822 14.0825 29.1899 14.0825H34.0577C34.9655 14.0825 35.7012 14.8183 35.7012 15.726V20.5939C35.7012 21.5015 34.9654 22.2374 34.0577 22.2374Z" fill="#E798DA"/>
<path d="M45.3859 22.2374H40.518C39.6103 22.2374 38.8745 21.5016 38.8745 20.5939V15.726C38.8745 14.8183 39.6103 14.0825 40.518 14.0825H45.3859C46.2936 14.0825 47.0294 14.8183 47.0294 15.726V20.5939C47.0295 21.5015 46.2936 22.2374 45.3859 22.2374Z" fill="#DA5AA0"/>
<path d="M33.7877 34.8707H28.9199C28.0122 34.8707 27.2764 34.1349 27.2764 33.2272V28.3593C27.2764 27.4516 28.0122 26.7158 28.9199 26.7158H33.7877C34.6954 26.7158 35.4312 27.4516 35.4312 28.3593V33.2272C35.4312 34.1349 34.6953 34.8707 33.7877 34.8707Z" fill="#FE5CA7"/>
<path d="M45.1153 34.8707H40.2475C39.3398 34.8707 38.604 34.1349 38.604 33.2272V28.3593C38.604 27.4516 39.3398 26.7158 40.2475 26.7158H45.1153C46.0231 26.7158 46.7589 27.4516 46.7589 28.3593V33.2272C46.7589 34.1349 46.0231 34.8707 45.1153 34.8707Z" fill="#E798DA"/>
<path d="M30.0066 42.1637H23.9344C23.7105 42.1637 23.4958 42.0748 23.3376 41.9165C23.1793 41.7582 23.0903 41.5435 23.0903 41.3196V39.1873C23.0903 38.9635 23.1793 38.7488 23.3376 38.5905C23.4958 38.4322 23.7105 38.3433 23.9344 38.3433H30.0066C30.2305 38.3433 30.4452 38.4322 30.6035 38.5905C30.7618 38.7488 30.8507 38.9635 30.8507 39.1873V41.3196C30.8507 41.4305 30.8289 41.5403 30.7865 41.6427C30.7441 41.7451 30.6819 41.8381 30.6035 41.9165C30.5251 41.9949 30.4321 42.0571 30.3297 42.0995C30.2272 42.1419 30.1175 42.1637 30.0066 42.1637Z" fill="#DA5AA0"/>
<path d="M13.7606 0.776367H49.319C50.4457 0.776367 51.3592 1.68979 51.3592 2.81666V50.9046C51.3592 51.6331 50.7687 52.2236 50.0403 52.2236H3.90054C3.1721 52.2236 2.58154 51.6331 2.58154 50.9046V2.81666C2.58154 1.68989 3.49496 0.776367 4.62184 0.776367H10.034" stroke="white" stroke-width="1.55273" stroke-miterlimit="10" stroke-linecap="round" stroke-linejoin="round"/>
<path d="M19.4553 13.8408H22.0725C23.0562 13.8408 23.8536 14.6382 23.8536 15.6219V33.4445C23.8536 34.4282 23.0562 35.2256 22.0725 35.2256H8.9642C7.98049 35.2256 7.18311 34.4282 7.18311 33.4445V15.6219C7.18311 14.6382 7.98049 13.8408 8.9642 13.8408H11.174" stroke="white" stroke-width="1.55273" stroke-miterlimit="10" stroke-linecap="round" stroke-linejoin="round"/>
<path d="M42.4976 40.2534H45.0872C46.0106 40.2534 46.7592 41.002 46.7592 41.9255V46.9387C46.7592 47.8622 46.0106 48.6108 45.0872 48.6108H8.85524C7.93178 48.6108 7.18315 47.8622 7.18315 46.9387V41.9255C7.18315 41.002 7.93178 40.2534 8.85524 40.2534H22.8837M31.3539 40.2534H38.8746M31.6243 15.3681V12.6903M42.952 15.3681V12.6903M31.3539 28.0019V25.3241M42.6817 28.0019V25.3241M10.7012 20.0726H20.3357M10.7012 23.3972H20.3357M10.7012 26.7217H20.3357M10.7012 30.0463H20.3357M3.01758 8.1687H51.3595M18.3976 15.8536H12.3254C12.1015 15.8536 11.8868 15.7647 11.7285 15.6064C11.5703 15.4481 11.4813 15.2334 11.4813 15.0095V12.8772C11.4813 12.6534 11.5703 12.4387 11.7285 12.2804C11.8868 12.1221 12.1015 12.0331 12.3254 12.0331H18.3976C18.6215 12.0331 18.8362 12.1221 18.9945 12.2804C19.1528 12.4387 19.2417 12.6534 19.2417 12.8772V15.0095C19.2417 15.1204 19.2199 15.2301 19.1775 15.3326C19.1351 15.435 19.0729 15.528 18.9945 15.6064C18.9161 15.6848 18.8231 15.747 18.7206 15.7894C18.6182 15.8318 18.5085 15.8536 18.3976 15.8536ZM34.0583 22.2371H29.1905C28.2827 22.2371 27.547 21.5013 27.547 20.5936V15.7258C27.547 14.818 28.2827 14.0822 29.1905 14.0822H34.0583C34.966 14.0822 35.7018 14.818 35.7018 15.7258V20.5936C35.7018 21.5012 34.9659 22.2371 34.0583 22.2371ZM45.3859 22.2371H40.5181C39.6104 22.2371 38.8746 21.5013 38.8746 20.5936V15.7258C38.8746 14.818 39.6104 14.0822 40.5181 14.0822H45.3859C46.2936 14.0822 47.0294 14.818 47.0294 15.7258V20.5936C47.0295 21.5012 46.2936 22.2371 45.3859 22.2371ZM33.7879 34.8709H28.9201C28.0124 34.8709 27.2766 34.1351 27.2766 33.2274V28.3595C27.2766 27.4518 28.0124 26.716 28.9201 26.716H33.7879C34.6956 26.716 35.4314 27.4518 35.4314 28.3595V33.2274C35.4314 34.1351 34.6955 34.8709 33.7879 34.8709ZM45.1155 34.8709H40.2477C39.34 34.8709 38.6042 34.1351 38.6042 33.2274V28.3595C38.6042 27.4518 39.34 26.716 40.2477 26.716H45.1155C46.0233 26.716 46.759 27.4518 46.759 28.3595V33.2274C46.759 34.1351 46.0233 34.8709 45.1155 34.8709Z" stroke="white" stroke-width="1.55273" stroke-miterlimit="10" stroke-linecap="round" stroke-linejoin="round"/>
<path d="M30.0066 42.1637H23.9344C23.7105 42.1637 23.4958 42.0748 23.3376 41.9165C23.1793 41.7582 23.0903 41.5435 23.0903 41.3196V39.1873C23.0903 38.9635 23.1793 38.7488 23.3376 38.5905C23.4958 38.4322 23.7105 38.3433 23.9344 38.3433H30.0066C30.2305 38.3433 30.4452 38.4322 30.6035 38.5905C30.7618 38.7488 30.8507 38.9635 30.8507 39.1873V41.3196C30.8507 41.4305 30.8289 41.5403 30.7865 41.6427C30.7441 41.7451 30.6819 41.8381 30.6035 41.9165C30.5251 41.9949 30.4321 42.0571 30.3297 42.0995C30.2272 42.1419 30.1175 42.1637 30.0066 42.1637Z" stroke="white" stroke-width="1.55273" stroke-miterlimit="10" stroke-linecap="round" stroke-linejoin="round"/>
</svg>
