<svg width="57" height="57" viewBox="0 0 57 57" fill="none" xmlns="http://www.w3.org/2000/svg">
<g clip-path="url(#clip0_53_1881)">
<path d="M45.0053 27.264C45.0053 24.243 43.9187 22.1519 42.9889 20.5238L42.7039 20.0607C41.5746 18.2438 40.5878 16.6478 40.5878 14.7882C40.5878 12.5438 42.2907 10.449 44.6918 10.449C44.7631 10.449 44.8307 10.4562 44.8984 10.4597L45.0089 10.4704C40.5065 6.33486 34.6137 4.04337 28.5002 4.0508C24.4485 4.04872 20.4599 5.05479 16.8939 6.97836C13.3278 8.90192 10.2964 11.6825 8.07286 15.0696C8.64286 15.0874 9.18793 15.1017 9.64749 15.1017C12.2018 15.1017 16.1597 14.7917 16.1597 14.7917C17.4779 14.7134 17.6346 16.6478 16.3165 16.8045C16.3165 16.8045 14.9948 16.9613 13.5199 17.0361L22.4262 43.5197L27.7699 27.4671L23.9581 17.0325C22.6435 16.9542 21.3966 16.801 21.3966 16.801C20.0785 16.7226 20.2352 14.7062 21.5498 14.7846C21.5498 14.7846 25.5897 15.0945 27.9908 15.0945C30.5487 15.0945 34.5102 14.7846 34.5102 14.7846C35.8283 14.7062 35.9815 16.6442 34.6634 16.801C34.6634 16.801 33.3381 16.9542 31.8668 17.0325L40.7018 43.3131L43.1386 35.1657L43.3309 34.5494C44.2928 31.4856 45.0017 29.2234 45.0017 27.2605L45.0053 27.264ZM4.0508 28.5002C4.05056 33.0914 5.34284 37.5899 7.77977 41.4809C10.2167 45.3719 13.6998 48.4983 17.8306 50.5022L6.16336 18.5466C4.76626 21.6788 4.04637 25.0706 4.0508 28.5002Z" fill="#DA5AA0"/>
<path d="M21.5928 51.9521L28.9315 30.6376L36.4448 51.2289C36.4947 51.3464 36.5517 51.4569 36.6194 51.5637C31.776 53.2701 26.5179 53.406 21.5928 51.9521ZM49.9503 16.7688C50.0571 17.549 50.1177 18.3826 50.1177 19.2839C50.1177 21.7634 49.6546 24.5529 48.2581 28.0405L40.7911 49.6293C46.3012 46.4279 50.3429 41.2008 52.0546 35.0623C53.7662 28.9238 53.0124 22.3595 49.9538 16.7688H49.9503Z" fill="#DA5AA0"/>
<path fill-rule="evenodd" clip-rule="evenodd" d="M0 28.5C0 12.7858 12.7858 0 28.5 0C44.2106 0 57 12.7858 57 28.5C57 44.2142 44.2106 57 28.5 57C12.7858 57 0 44.2142 0 28.5ZM1.30744 28.5C1.30744 43.4946 13.5054 55.6926 28.5 55.6926C43.491 55.6926 55.689 43.4946 55.689 28.5C55.689 13.5019 43.491 1.30744 28.5 1.30744C13.5019 1.30744 1.30744 13.5019 1.30744 28.5Z" fill="#DA5AA0"/>
</g>
<defs>
<clipPath id="clip0_53_1881">
<rect width="57" height="57" fill="white"/>
</clipPath>
</defs>
</svg>
