<svg  viewBox="0 0 38 37" fill="none" xmlns="http://www.w3.org/2000/svg">
<path d="M1.71042 1.61626H36.1914V35.1568H1.71042V1.61626Z" fill="white"/>
<path d="M1.71039 1.61627H36.1914V35.1568H1.71039V1.61627ZM0.139893 36.7247H37.7565V0.0484619H0.139893V36.7247ZM24.7788 13.1202C24.7788 12.9953 24.8258 12.9321 24.9669 12.9321H27.4281C27.553 12.9321 27.6161 12.9792 27.6161 13.1202V25.4867C27.6161 25.6116 27.5852 25.6748 27.4281 25.6748H25.0004C24.8433 25.6748 24.7962 25.5969 24.7962 25.4706V13.1202H24.7788ZM24.6068 9.56278C24.6068 9.13877 24.7752 8.73214 25.0751 8.43232C25.3749 8.13251 25.7815 7.96407 26.2055 7.96407C26.6295 7.96407 27.0362 8.13251 27.336 8.43232C27.6358 8.73214 27.8042 9.13877 27.8042 9.56278C27.8197 9.77937 27.7879 9.99675 27.7111 10.1998C27.6342 10.4029 27.5141 10.5869 27.3591 10.739C27.2041 10.891 27.0179 11.0076 26.8134 11.0806C26.6088 11.1535 26.3909 11.1811 26.1746 11.1615C25.9627 11.1748 25.7505 11.1423 25.5523 11.0661C25.3541 10.99 25.1746 10.8721 25.0261 10.7204C24.8776 10.5687 24.7635 10.3868 24.6916 10.187C24.6197 9.98724 24.5917 9.77433 24.6095 9.56278H24.6068ZM17.5537 18.2777C17.1144 16.5313 16.0759 12.7454 15.689 10.9116H15.6581C15.3289 12.7454 14.4987 15.8488 13.8404 18.2777H17.5537ZM13.1969 20.8169L11.9582 25.5189C11.9273 25.6439 11.8803 25.6761 11.7231 25.6761H9.42179C9.26461 25.6761 9.23371 25.6291 9.26461 25.441L13.7155 9.85699C13.8238 9.43211 13.8766 8.99499 13.8726 8.55653C13.8726 8.44637 13.9197 8.39935 13.9976 8.39935H17.289C17.3992 8.39935 17.4462 8.43025 17.4771 8.55653L22.4613 25.4679C22.4922 25.5928 22.4613 25.6721 22.3364 25.6721H19.7341C19.6092 25.6721 19.5299 25.6412 19.499 25.5377L18.2133 20.8195H13.1982L13.1969 20.8169Z" fill="#8A6DF2"/>
</svg>
