<svg width="" height="" viewBox="0 0 100 100" fill="none" xmlns="http://www.w3.org/2000/svg">
<path d="M82.8125 32.8125H17.1875C14.5312 32.8125 12.5 30.7813 12.5 28.125C12.5 25.4687 14.5312 23.4375 17.1875 23.4375H82.8125C85.4688 23.4375 87.5 25.4687 87.5 28.125C87.5 30.7813 85.4688 32.8125 82.8125 32.8125ZM82.8125 54.6875H17.1875C14.5312 54.6875 12.5 52.6563 12.5 50C12.5 47.3437 14.5312 45.3125 17.1875 45.3125H82.8125C85.4688 45.3125 87.5 47.3437 87.5 50C87.5 52.6563 85.4688 54.6875 82.8125 54.6875ZM82.8125 76.5625H17.1875C14.5312 76.5625 12.5 74.5313 12.5 71.875C12.5 69.2187 14.5312 67.1875 17.1875 67.1875H82.8125C85.4688 67.1875 87.5 69.2187 87.5 71.875C87.5 74.5313 85.4688 76.5625 82.8125 76.5625Z" fill="#8A6DF2"/>
</svg>
