<svg width="31" height="34" viewBox="0 0 31 34" fill="none" xmlns="http://www.w3.org/2000/svg">
<path d="M3.25266 29.8282L0.513916 0.693054H30.6072L27.8648 29.8236L15.5423 33.0641L3.25266 29.8282Z" fill="#FDF3F0"/>
<path d="M15.5605 30.5878L25.5185 27.9692L27.8611 3.07581H15.5605V30.5878Z" fill="white"/>
<path d="M15.5604 13.8808H10.5753L10.2316 10.2217H15.5604V6.64819H15.547H6.11435L6.20454 7.60777L7.12965 17.4544H15.5604V13.8808Z" fill="#8669F1"/>
<path d="M15.5606 23.1609L15.5436 23.1655L11.3483 22.0915L11.0801 19.2417H9.04101H7.29807L7.82583 24.8511L15.5436 26.8836L15.5606 26.8789V23.1609Z" fill="#8669F1"/>
<path d="M15.547 13.8808V17.4544H20.1859L19.7496 22.0892L15.547 23.1644V26.8824L23.2708 24.8511L23.3269 24.2477L24.2118 14.8404L24.3044 13.8808H23.2891H15.547Z" fill="#8669F1"/>
<path d="M15.5471 6.64819V8.86793V10.2136V10.2217H24.6348H24.647L24.7225 9.41939L24.8944 7.60777L24.9846 6.64819H15.5471Z" fill="#8669F1"/>
</svg>
