<svg  viewBox="0 0 35 36" fill="none" xmlns="http://www.w3.org/2000/svg">
<path d="M0.139893 0.39447H34.8036V35.0582H0.139893V0.39447Z" fill="white"/>
<path d="M21.8221 28.3094C22.1174 28.9093 22.5763 29.4136 23.1458 29.764C23.7153 30.1145 24.3722 30.2969 25.0409 30.2902C26.3903 30.2902 27.2532 29.6155 27.2532 28.6808C27.2532 27.5666 26.3668 27.168 24.8812 26.518L24.0666 26.1689C21.7144 25.1674 20.1545 23.9133 20.1545 21.2615C20.1545 18.819 22.0115 16.9583 24.9245 16.9583C25.8675 16.8902 26.8097 17.1012 27.6335 17.5651C28.4573 18.029 29.1263 18.7251 29.5571 19.5667L27.0105 21.1947C26.8447 20.7774 26.5559 20.4204 26.1824 20.171C25.809 19.9216 25.3686 19.7916 24.9196 19.7982C24.7237 19.7786 24.5258 19.8 24.3387 19.8611C24.1515 19.9222 23.9791 20.0216 23.8325 20.1529C23.6858 20.2843 23.5682 20.4448 23.487 20.6241C23.4058 20.8035 23.3629 20.9978 23.3609 21.1947C23.3609 22.1715 23.9663 22.5676 25.364 23.1755L26.1786 23.5246C28.9467 24.7118 30.5116 25.9213 30.5116 28.6412C30.5116 31.574 28.2077 33.1809 25.1139 33.1809C23.9085 33.2577 22.7066 32.984 21.6533 32.3929C20.5999 31.8017 19.7402 30.9184 19.1778 29.8495L21.8221 28.3094ZM10.315 28.5917C10.8263 29.4991 11.2918 30.2667 12.4109 30.2667C13.4805 30.2667 14.1565 29.8482 14.1565 28.2203V17.144H17.4136V28.2636C17.4136 31.6359 15.4328 33.171 12.5496 33.171C11.5304 33.2267 10.5182 32.9727 9.64608 32.4424C8.77396 31.9121 8.08271 31.1303 7.66321 30.1998L10.315 28.5917Z" fill="#8A6DF2"/>
</svg>
