<svg width="65" height="63" viewBox="0 0 65 63" fill="none" xmlns="http://www.w3.org/2000/svg">
<path d="M63.335 28.5921C63.043 27.7841 62.539 27.0581 61.871 26.5161C60.751 25.6061 59.673 25.6061 58.163 25.6061C52.783 26.1601 53.173 29.3181 53.273 33.7861C53.283 34.2641 53.313 34.7421 53.353 35.2161C54.557 49.5561 45.149 56.5661 40.839 58.4361C42.079 54.3881 44.475 51.2481 45.797 50.0921C49.497 49.1461 50.597 48.0961 50.885 47.0221C51.373 45.2101 49.547 43.6641 47.755 44.2181C43.569 45.5141 38.939 52.8181 38.939 52.8181C38.939 52.8181 40.179 50.0081 41.253 48.4401C42.409 47.0361 42.161 46.4581 42.079 45.2181C40.739 41.7581 40.213 39.7701 40.051 38.4701C39.895 37.2161 40.177 35.9601 40.747 34.8341C41.695 32.9581 40.641 31.7461 39.683 30.5121C36.873 28.7041 35.687 34.2721 35.295 37.1541C35.175 38.0281 35.463 38.9081 36.059 39.5581C39.289 43.0901 38.441 44.7281 37.883 48.7341C37.773 49.5201 37.623 50.3061 37.411 51.0721C36.033 56.0261 33.675 57.0861 32.177 57.0621C31.439 57.0501 30.8429 56.4581 30.8389 55.7201C30.8249 53.8881 30.777 51.3961 30.721 49.7201C30.689 48.7801 30.363 47.8741 29.777 47.1381C28.093 45.0241 24.8709 42.7901 22.8989 41.6081C22.3369 41.2701 21.6069 41.4901 21.3249 42.0821C20.5889 43.6321 20.2149 44.4061 19.8409 44.9981C19.7369 45.1641 19.4829 45.0401 19.5429 44.8521C20.3729 42.3061 20.6589 40.4621 20.6369 39.1181C20.5969 36.6741 18.2249 34.8981 15.9329 35.7461C14.5029 36.2741 14.7689 37.3161 14.6489 38.4421C14.5009 42.4541 13.8169 42.1241 12.7189 42.0161C12.3429 41.9801 11.9729 41.8481 11.6809 41.6061C9.8949 40.1321 12.1309 37.0681 13.4089 35.7161C14.8129 34.2281 18.5309 33.2381 21.5889 31.9981C25.9869 30.3821 27.1449 32.5601 27.9149 34.2981C28.3729 35.3301 29.239 36.1541 30.323 36.4701C31.751 36.8861 32.4729 36.1401 32.8569 35.2361C33.2349 34.3461 33.231 33.3421 32.917 32.4261C32.117 30.0961 30.243 29.0401 28.403 28.5981C26.395 28.1141 24.2869 28.4941 22.4629 29.4621C20.5469 30.4781 18.8389 30.7121 17.5409 30.8401C21.7549 28.6101 21.5889 27.3701 22.1669 25.5521C21.3409 25.4701 19.8529 24.3961 19.4409 23.4861C18.4489 18.0341 14.3189 16.7121 12.5009 16.5461C13.9889 12.9101 12.0049 11.3421 11.1789 10.4321C10.8549 12.6381 9.71292 14.0801 8.71891 14.9981C8.00691 15.6541 7.30292 16.3201 6.67291 17.0541C-0.697097 25.6441 -0.821094 34.1261 0.926909 40.5821C2.56091 46.6161 6.24291 51.8741 11.1389 55.7601C22.5209 64.7921 35.251 63.3961 41.671 61.9141C44.291 61.3101 46.797 60.2781 49.061 58.8261C64.631 48.8481 65.223 33.8321 63.333 28.5861L63.335 28.5921Z" fill="#DFDFDF"/>
<path d="M25.8029 35.7721C26.1829 35.7721 26.4909 35.464 26.4909 35.0841C26.4909 34.7041 26.1829 34.3961 25.8029 34.3961C25.423 34.3961 25.1149 34.7041 25.1149 35.0841C25.1149 35.464 25.423 35.7721 25.8029 35.7721Z" fill="#DFDFDF"/>
<path d="M25.997 38.1181C26.3769 38.1181 26.685 37.81 26.685 37.4301C26.685 37.0501 26.3769 36.7421 25.997 36.7421C25.617 36.7421 25.309 37.0501 25.309 37.4301C25.309 37.81 25.617 38.1181 25.997 38.1181Z" fill="#DFDFDF"/>
<path d="M23.7249 38.1181C24.1049 38.1181 24.4129 37.81 24.4129 37.4301C24.4129 37.0501 24.1049 36.7421 23.7249 36.7421C23.345 36.7421 23.0369 37.0501 23.0369 37.4301C23.0369 37.81 23.345 38.1181 23.7249 38.1181Z" fill="#DFDFDF"/>
<path d="M23.5389 35.9301C23.9189 35.9301 24.227 35.6221 24.227 35.2421C24.227 34.8622 23.9189 34.5541 23.5389 34.5541C23.159 34.5541 22.851 34.8622 22.851 35.2421C22.851 35.6221 23.159 35.9301 23.5389 35.9301Z" fill="#DFDFDF"/>
<path d="M32.1829 41.8461C31.9149 41.5781 31.4789 41.5781 31.2089 41.8461C30.9409 42.1141 30.9409 42.5501 31.2089 42.8201L31.9569 43.4661L31.375 44.1381C31.107 44.4061 31.107 44.8421 31.375 45.1121C31.643 45.3801 32.079 45.3801 32.349 45.1121L32.9949 44.3641L33.6669 44.9461C33.9349 45.2141 34.3709 45.2141 34.6409 44.9461C34.9089 44.6781 34.9089 44.2421 34.6409 43.9721L33.8929 43.3261L34.475 42.6541C34.743 42.3861 34.743 41.9501 34.475 41.6801C34.207 41.4121 33.771 41.4121 33.501 41.6801L32.855 42.4281L32.1829 41.8461Z" fill="#DFDFDF"/>
<path d="M45.6086 5.21801C42.2246 6.03001 41.6286 6.69001 40.8946 10.436C40.1606 6.69001 39.5646 6.03001 36.1806 5.21801C39.5646 4.40601 40.1606 3.74601 40.8946 0C41.6286 3.74601 42.2246 4.40601 45.6086 5.21801Z" fill="#DFDFDF"/>
<path d="M55.8869 11.636C53.4668 12.218 53.0429 12.688 52.5169 15.366C51.9929 12.688 51.5669 12.218 49.1469 11.636C51.5669 11.054 51.9909 10.584 52.5169 7.90601C53.0409 10.584 53.4668 11.054 55.8869 11.636Z" fill="#DFDFDF"/>
<path d="M40.2708 15.9179C38.8028 16.2699 38.5448 16.5559 38.2248 18.1819C37.9068 16.5559 37.6488 16.2699 36.1788 15.9179C37.6468 15.5659 37.9048 15.2799 38.2248 13.6539C38.5428 15.2799 38.8008 15.5659 40.2708 15.9179Z" fill="#DFDFDF"/>
</svg>
