<svg width="40" height="39" viewBox="0 0 40 39" fill="none" xmlns="http://www.w3.org/2000/svg">
<path fill-rule="evenodd" clip-rule="evenodd" d="M10.1637 6.90545C9.79858 6.90429 9.43485 6.95062 9.08167 7.04329V7.09153H9.13404C9.387 7.47337 9.66903 7.83513 9.97763 8.17358C10.1899 8.59537 10.3746 9.01579 10.5855 9.43758C10.6117 9.41139 10.6379 9.38382 10.6379 9.38382C10.8337 9.22839 10.987 9.02589 11.0834 8.79523C11.1798 8.56456 11.2162 8.31323 11.1892 8.06469C11.0738 7.88669 10.968 7.70264 10.8722 7.51333C10.7137 7.25005 10.3705 7.11772 10.1596 6.90683" fill="white"/>
<path fill-rule="evenodd" clip-rule="evenodd" d="M36.3465 29.9082C34.6077 29.7861 32.863 30.038 31.2298 30.6471C30.8342 30.8056 30.2029 30.8056 30.1478 31.306C30.36 31.5168 30.3849 31.8573 30.5709 32.1509C30.932 32.7622 31.396 33.3064 31.9425 33.7595C32.4938 34.1813 33.0452 34.6017 33.631 34.9711C34.6579 35.6066 35.8199 35.9746 36.8206 36.6073C37.4023 36.9767 37.9813 37.4509 38.5629 37.8479C38.8524 38.0588 39.0357 38.3992 39.4052 38.5371V38.4571C39.2966 38.1642 39.1624 37.8814 39.004 37.6122C38.7408 37.3503 38.4761 37.1118 38.2114 36.8485C37.4383 35.8261 36.5132 34.9281 35.4684 34.1854C34.6235 33.6038 32.7764 32.807 32.4359 31.8421L32.3822 31.7884C33.0004 31.7008 33.6098 31.5587 34.203 31.3638C35.099 31.1268 35.9164 31.1805 36.8386 30.9503C37.2617 30.8442 38.0267 30.5809 38.0267 30.5809V30.1674C37.5553 29.6987 37.2176 29.0716 36.7214 28.6291C35.3714 27.4506 33.9327 26.3778 32.418 25.4202C31.6089 24.8977 30.5654 24.5614 29.7039 24.1162C29.3924 23.959 28.8769 23.8819 28.688 23.62C28.2596 22.9914 27.9009 22.3179 27.6184 21.6116C26.863 20.1781 26.1311 18.5888 25.4805 17.0725C25.0954 16.0564 24.6512 15.0636 24.1503 14.0993C21.7331 9.98953 18.2439 6.61428 14.0563 4.33467C12.9996 3.82322 11.8762 3.46313 10.7191 3.26503C10.0658 3.23746 9.41515 3.18646 8.76317 3.16165C8.34229 2.88592 7.94196 2.58003 7.56533 2.24638C6.0739 1.30217 2.24193 -0.72684 1.14471 1.95967C0.441726 3.65649 2.18955 5.32437 2.78915 6.18587C3.29474 6.79331 3.74022 7.44837 4.11932 8.14183C4.30264 8.58568 4.35502 9.05571 4.53284 9.52024C4.91546 10.7127 5.36979 11.881 5.89332 13.0186C6.17334 13.5809 6.4959 14.121 6.85821 14.6341C7.06911 14.9222 7.43301 15.0476 7.51157 15.5232C7.2225 16.1445 7.02028 16.8027 6.91059 17.4792C6.45495 18.9181 6.28726 20.4327 6.41711 21.9364C6.54695 23.4401 6.97178 24.9036 7.66733 26.2431C8.08086 26.895 9.07607 28.33 10.4062 27.7814C11.5793 27.3127 11.3187 25.8254 11.6578 24.5228C11.735 24.2072 11.684 24.0004 11.8398 23.7923V24.0459C11.8398 24.0459 12.5055 25.5084 12.8364 26.2513C13.736 27.6146 14.8536 28.8207 16.1445 29.8214C16.6552 30.2672 17.0665 30.8152 17.352 31.43V31.9028H17.9406C17.9283 31.6896 17.8692 31.4818 17.7675 31.294C17.6658 31.1063 17.5239 30.9433 17.352 30.8166C16.8694 30.3198 16.4273 29.7851 16.0301 29.2177C14.9512 27.681 13.9997 26.0588 13.1851 24.3671C12.7716 23.54 12.4228 22.633 12.092 21.8074C11.9404 21.4889 11.9404 21.0079 11.6854 20.8425C11.2145 21.3996 10.8059 22.0065 10.4669 22.6523C10.0553 23.9577 9.81571 25.3113 9.75424 26.6786C9.65362 26.7062 9.70324 26.6786 9.65362 26.731C8.84174 26.5174 8.56192 25.6393 8.25591 24.895C7.46541 22.5993 7.38567 20.1186 8.0271 17.7769C8.20353 17.2186 8.96855 15.4598 8.66254 14.9263C8.50954 14.4177 8.00091 14.1269 7.72247 13.7258C7.36701 13.1861 7.06113 12.6154 6.80859 12.0207C6.20347 10.5375 5.89746 8.88341 5.23858 7.38922C4.87385 6.6706 4.44918 5.98402 3.96907 5.33677C3.43799 4.69021 2.96953 3.99467 2.56999 3.25951C2.44317 2.96591 2.26536 2.48623 2.46798 2.16644C2.48166 2.07761 2.5239 1.99565 2.58832 1.93297C2.65274 1.8703 2.73582 1.83031 2.82499 1.81908C3.15305 1.52685 4.0945 1.89902 4.42394 2.05892C5.30937 2.40749 6.15275 2.85461 6.93816 3.39184C7.29379 3.65925 8.13186 4.33605 8.13186 4.33605H8.37997C9.22356 4.51938 10.1719 4.38705 10.9659 4.62551C12.3027 5.07114 13.5784 5.68239 14.7634 6.44501C18.2558 8.67135 21.095 11.7845 22.9911 15.4667C23.3081 16.0718 23.4418 16.6273 23.7313 17.2586C24.2826 18.5543 24.9719 19.8776 25.5232 21.1374C26.0096 22.3839 26.6387 23.5699 27.3978 24.6717C27.7921 25.223 29.3759 25.5153 30.0885 25.8047C30.7074 26.0188 31.3147 26.265 31.908 26.5422C32.8053 27.0935 33.6999 27.729 34.5449 28.3341C34.9653 28.6511 36.2844 29.31 36.3644 29.8379" fill="white"/>
</svg>
