<svg  viewBox="0 0 37 36" fill="none" xmlns="http://www.w3.org/2000/svg">
<path d="M2.14981 2.18881H35.2516V34.3878H2.14981V2.18881Z" fill="white"/>
<path d="M2.14975 2.18881H35.2515V34.3878H2.14975V2.18881ZM0.644653 35.8929H36.7566V0.683716H0.644653V35.8929ZM24.9906 15.1285C23.8014 15.1285 23.3952 15.7308 23.3952 16.2273C23.3952 16.769 23.666 17.1456 25.2614 17.9723C27.6241 19.1163 28.3567 20.2138 28.3567 21.8247C28.3567 24.2326 26.5214 25.5262 24.0387 25.5262C22.9732 25.5656 21.9142 25.3443 20.9538 24.8813C20.848 24.8362 20.8338 24.7614 20.8338 24.6401V22.4257C20.8338 22.2748 20.9086 22.2296 21.0144 22.3057C21.9164 22.8858 22.9663 23.1938 24.0387 23.1931C25.2279 23.1931 25.7244 22.6965 25.7244 22.0194C25.7244 21.4777 25.3788 20.9967 23.8582 20.2138C21.7211 19.1911 20.8338 18.1503 20.8338 16.4221C20.8338 14.4811 22.3531 12.8715 24.9867 12.8715C25.9034 12.8321 26.8188 12.9755 27.6796 13.2932C27.7292 13.3254 27.7693 13.3702 27.7958 13.423C27.8223 13.4758 27.8343 13.5348 27.8305 13.5937V15.6573C27.8305 15.7772 27.7557 15.8533 27.6048 15.8082C26.8092 15.3502 25.9045 15.1162 24.9867 15.1311L24.9906 15.1285ZM12.0496 16.9186C12.3952 16.9483 12.6661 16.9483 13.2684 16.9483C15.0288 16.9483 16.6835 16.3318 16.6835 13.9394C16.6835 12.028 15.4944 11.0659 13.4941 11.0659C12.8918 11.0659 12.3204 11.0956 12.0496 11.111V16.9186ZM9.37085 8.9224C9.37085 8.81664 9.58107 8.74184 9.7023 8.74184C10.6657 8.6967 12.0947 8.66704 13.5843 8.66704C17.7527 8.66704 19.3777 10.9537 19.3777 13.8736C19.3777 17.695 16.6087 19.3355 13.209 19.3355C12.6377 19.3355 12.4417 19.3059 12.0354 19.3059V25.0838C12.0354 25.2037 11.9903 25.2643 11.8548 25.2643H9.5527C9.43275 25.2643 9.37214 25.2192 9.37214 25.0838V8.92885L9.37085 8.9224Z" fill="#8A6DF2"/>
</svg>
