<svg  viewBox="0 0 40 35" fill="none" xmlns="http://www.w3.org/2000/svg">
<path d="M20.0722 20.8403C21.9901 20.8403 23.5448 19.2856 23.5448 17.3678C23.5448 15.45 21.9901 13.8953 20.0722 13.8953C18.1544 13.8953 16.5997 15.45 16.5997 17.3678C16.5997 19.2856 18.1544 20.8403 20.0722 20.8403Z" fill="white"/>
<path d="M20.0722 25.3295C15.8985 25.4305 11.7351 24.8679 7.73787 23.6627C5.89135 23.0774 4.16914 22.1553 2.65827 20.943C2.08174 20.5289 1.60162 19.995 1.25085 19.3778C0.900089 18.7607 0.686984 18.075 0.62616 17.3677C0.62616 15.0717 3.14859 12.8215 7.37395 11.3492C11.4781 10.0446 15.7662 9.41227 20.0722 9.47681C24.3208 9.41745 28.5515 10.0383 32.6038 11.3158C34.3822 11.8828 36.046 12.7603 37.5181 13.9077C38.0848 14.3025 38.5577 14.8171 38.9034 15.4151C39.2491 16.013 39.459 16.6796 39.5183 17.3677C39.5183 19.7541 36.6986 22.1723 32.1566 23.6752C28.2367 24.8411 24.1612 25.399 20.0722 25.3295ZM20.0722 11.1381C15.9526 11.083 11.8505 11.6841 7.91983 12.9188C4.03061 14.2758 2.28741 16.1315 2.28741 17.3636C2.28741 18.6526 4.16118 20.6791 8.27541 22.0862C12.0994 23.2333 16.0811 23.7673 20.0722 23.6683C23.9842 23.7382 27.8839 23.2089 31.6357 22.0987C35.9069 20.6833 37.8515 18.654 37.8515 17.3677C37.7814 16.9264 37.6206 16.5043 37.3791 16.1282C37.1376 15.7522 36.8208 15.4302 36.4486 15.1828C35.1315 14.1649 33.6452 13.3872 32.058 12.8854C28.1813 11.6683 24.135 11.0784 20.0722 11.1381Z" fill="white"/>
<path d="M12.1829 34.6873C11.5349 34.7021 10.8946 34.5449 10.3272 34.2317C8.33811 33.0844 7.64916 29.7758 8.48395 25.3796C9.40437 21.1724 10.9992 17.1418 13.2066 13.4438C15.2772 9.73394 17.9281 6.37922 21.0586 3.50688C22.4381 2.24942 24.0295 1.24633 25.759 0.544132C26.3846 0.250968 27.067 0.098999 27.7578 0.098999C28.4486 0.098999 29.131 0.250968 29.7566 0.544132C31.8248 1.7359 32.5096 5.38621 31.5442 10.0713C30.5954 14.0502 29.042 17.8601 26.9383 21.3681C24.9405 25.0342 22.3731 28.3597 19.3321 31.2203C17.9025 32.5271 16.2434 33.5579 14.4386 34.2608C13.7161 34.529 12.9534 34.6732 12.1829 34.6873ZM14.6456 14.2689C12.54 17.8099 11.0115 21.6636 10.1174 25.6851C9.3493 29.7341 10.0869 32.169 11.1592 32.7885C12.2704 33.4316 14.9678 32.8218 18.2431 29.9605C21.1462 27.2199 23.5967 24.0367 25.5034 20.5291C27.5188 17.1754 29.0089 13.5329 29.9219 9.72824C30.8303 5.31814 30.0455 2.61792 28.9315 1.9762C28.514 1.81622 28.0678 1.74461 27.6212 1.76589C27.1746 1.78716 26.7373 1.90087 26.3368 2.09982C24.7974 2.73508 23.3821 3.63693 22.1559 4.76393C19.1649 7.51526 16.6328 10.7268 14.6553 14.2772L14.6456 14.2689Z" fill="white"/>
<path d="M27.9576 34.7053C26.0755 34.7053 23.685 33.5664 21.1959 31.4259C18.0105 28.5274 15.3149 25.1329 13.2133 21.3737C11.0336 17.7266 9.45145 13.7543 8.52683 9.6074C8.12584 7.78293 8.05153 5.9018 8.30737 4.05138C8.36652 3.36494 8.57554 2.69984 8.91969 2.10297C9.26384 1.5061 9.73475 0.992004 10.2992 0.596925C12.3647 -0.599008 15.8691 0.630261 19.4458 3.80553C22.4191 6.61435 24.944 9.86257 26.9325 13.4369C29.1109 16.9988 30.7097 20.8841 31.6691 24.9476C32.0873 26.839 32.1518 28.7915 31.8593 30.7064C31.7898 31.4126 31.5683 32.0954 31.2101 32.7079C30.8519 33.3205 30.3655 33.8483 29.7842 34.2553C29.226 34.5647 28.5956 34.72 27.9576 34.7053ZM14.651 20.5375C16.667 24.1301 19.242 27.3788 22.2794 30.1619C25.4032 32.8496 27.8812 33.4275 28.9466 32.801C30.0578 32.1551 30.8773 29.5188 30.0328 25.2532C29.1076 21.3736 27.5741 17.6649 25.4894 14.2647C23.5917 10.8438 21.1817 7.73344 18.3429 5.04174C14.976 2.0526 12.2452 1.38449 11.1326 2.02899C10.7858 2.31079 10.5013 2.66144 10.2968 3.05878C10.0924 3.45612 9.97264 3.89153 9.94501 4.33752C9.72416 5.98777 9.7961 7.66405 10.1575 9.28932C11.0469 13.2551 12.5643 17.0533 14.6523 20.5403L14.651 20.5375Z" fill="white"/>
</svg>
