<svg  viewBox="0 0 44 33" fill="none" xmlns="http://www.w3.org/2000/svg">
<path d="M37.4739 19.1712C36.1225 19.1729 34.7893 19.482 33.5749 20.0748C33.1947 19.4439 32.9011 18.7647 32.702 18.0554C32.5876 17.4995 32.5612 16.9291 32.6237 16.3649C32.755 15.7442 32.9254 15.1323 33.1339 14.533C33.1262 14.4547 33.0401 14.0843 32.1749 14.072C31.3097 14.0597 30.5643 14.2364 30.4844 14.4654C30.3341 14.8837 30.2135 15.312 30.1232 15.7471C29.4072 17.5137 28.5257 19.2087 27.4907 20.8094C26.9108 19.8588 26.6723 18.7388 26.8145 17.6344C26.9458 17.0136 27.1162 16.4017 27.3247 15.8025C27.317 15.7241 27.231 15.3537 26.3657 15.3414C25.5005 15.3291 24.7551 15.5059 24.6752 15.7348C24.5953 15.9638 24.4939 16.5033 24.3141 17.0165C24.1343 17.5298 22.035 22.2202 21.4848 23.4297C21.202 24.0444 20.9577 24.5454 20.7855 24.8835C20.7774 24.9055 20.7671 24.9266 20.7548 24.9465C20.6011 25.237 20.5197 25.3953 20.5197 25.3953V25.403C20.4013 25.6151 20.2753 25.8118 20.2123 25.8118C20.1024 25.3727 20.1077 24.9127 20.2277 24.4763C20.535 22.8488 21.2881 20.3192 21.2804 20.2316C21.2804 20.1839 21.4218 19.7444 20.7932 19.517C20.6474 19.4476 20.4837 19.4251 20.3246 19.4526C20.1656 19.4802 20.0189 19.5563 19.9049 19.6706C19.8496 19.6706 19.8112 19.8043 19.8112 19.8043C19.8112 19.8043 20.4951 16.9597 18.5064 16.9597C17.732 17.1155 16.9966 17.4245 16.3433 17.8687C15.6901 18.3129 15.1323 18.8832 14.7028 19.5462C14.168 19.8366 13.0292 20.4575 11.8105 21.126C11.3495 21.3857 10.8669 21.6455 10.4197 21.8944C10.3889 21.8637 10.3567 21.8237 10.3259 21.793C7.90544 19.2142 3.45634 17.3946 3.64844 13.9444C3.71914 12.6873 4.15099 9.38623 12.1916 5.37667C18.8092 2.11554 24.0759 3.01919 24.9872 5.0232C26.292 7.88476 22.1656 13.1975 15.3283 13.9675C14.5719 14.121 13.7906 14.1024 13.0423 13.9133C12.2941 13.7242 11.5979 13.3693 11.0052 12.8748C10.6441 12.4814 10.5887 12.4583 10.455 12.5367C10.2353 12.6551 10.3766 13.0085 10.455 13.2129C10.7159 13.685 11.0687 14.0999 11.4926 14.4333C11.9165 14.7667 12.4029 15.0117 12.9232 15.1539C15.6129 15.7352 18.4174 15.4573 20.9407 14.3594C25.0902 12.7565 28.3175 8.2997 27.3708 4.56677C26.4195 0.778504 20.1324 -0.470931 14.1818 1.64681C10.4546 2.90097 7.01075 4.87644 4.04648 7.4606C0.768443 10.5266 0.250534 13.1899 0.462615 14.3071C1.23103 18.2691 6.68827 20.8463 8.8721 22.7596C8.76145 22.8227 8.66002 22.878 8.57395 22.9241C7.48127 23.4666 3.31649 25.6443 2.27299 27.9464C1.09425 30.559 2.46202 32.4262 3.36567 32.6783C4.7273 33.0042 6.15673 32.8969 7.4544 32.3712C8.75206 31.8455 9.8532 30.9277 10.6041 29.746C11.2435 28.7659 11.6365 27.6457 11.7497 26.4809C11.8629 25.3161 11.6929 24.1412 11.2542 23.0563C11.2468 23.0387 11.2364 23.0226 11.2234 23.0086L12.0794 22.5061C12.6373 22.1757 13.1875 21.8698 13.6593 21.6178C13.3394 22.5406 13.1515 23.504 13.1014 24.4793C12.9928 25.9743 13.4503 27.4555 14.3831 28.6288C14.5251 28.7509 14.6899 28.8437 14.8679 28.9018C15.046 28.9598 15.2338 28.9819 15.4205 28.9669C16.3426 28.9669 16.7652 28.1985 17.2278 27.2856C17.7933 26.1698 18.3036 24.8728 18.3036 24.8728C18.3036 24.8728 17.6673 28.3783 19.3962 28.3783C20.0248 28.3783 20.661 27.5607 20.9454 27.1488V27.1565C20.9454 27.1565 20.9607 27.1334 20.993 27.0781L21.0944 26.9137V26.8983C21.3465 26.4588 21.912 25.4598 22.7527 23.8016C23.8377 21.6639 24.8827 18.9914 24.8827 18.9914C24.9835 19.5787 25.1226 20.1588 25.2992 20.728C25.5523 21.4179 25.8516 22.09 26.1951 22.7397C25.9431 23.0931 25.7863 23.2899 25.7863 23.2899L25.794 23.2975C25.5896 23.5649 25.3699 23.8554 25.1255 24.1382C24.3985 24.9375 23.724 25.7829 23.1061 26.6693C23.0143 26.8182 22.9828 26.9965 23.0179 27.1678C23.053 27.3392 23.1522 27.4907 23.2952 27.5914C23.6187 27.7598 23.9874 27.8206 24.3479 27.7651C24.8911 27.7344 25.4252 27.6123 25.9277 27.4039C26.4134 27.233 26.8716 26.9923 27.2878 26.6893C27.7169 26.392 28.0624 25.9893 28.2909 25.5199C28.5194 25.0505 28.6233 24.5302 28.5926 24.0091C28.5443 23.3526 28.3766 22.7105 28.0977 22.1142C28.1761 22.0035 28.2514 21.8944 28.3252 21.7838C29.1989 20.4796 29.9864 19.1197 30.6827 17.7127C30.7834 18.3001 30.9226 18.8802 31.0991 19.4493C31.3079 20.0455 31.5649 20.6238 31.8675 21.1783C30.8624 21.9516 30.0706 22.9681 29.5669 24.132C29.0721 25.5628 29.4563 26.2067 30.1816 26.3558C30.5786 26.3832 30.9754 26.3019 31.3297 26.1207C31.8504 25.9495 32.3411 25.6975 32.7835 25.3738C33.25 25.0985 33.6407 24.7115 33.9205 24.2476C34.2003 23.7838 34.3604 23.2577 34.3864 22.7166C34.3515 22.1765 34.2295 21.6456 34.0252 21.1444C35.3517 20.6262 36.7899 20.461 38.1992 20.665C41.9399 21.1045 42.6791 23.4389 42.5377 24.4225C42.4714 24.7712 42.3312 25.1016 42.1265 25.3916C41.9219 25.6816 41.6576 25.9244 41.3513 26.1038C41.0915 26.2682 41.0055 26.3235 41.0285 26.4419C41.0593 26.6155 41.1822 26.6063 41.405 26.5756C41.9688 26.4003 42.4662 26.0583 42.8317 25.5947C43.1971 25.131 43.4134 24.5675 43.4521 23.9783C43.5704 21.6731 41.3697 19.145 37.4785 19.1681L37.4739 19.1712ZM8.61237 28.8962C7.37062 30.2486 5.6417 30.7588 4.8948 30.327C4.09258 29.8659 4.40763 27.868 5.93216 26.4357C6.8365 25.6217 7.81395 24.8927 8.85212 24.258C9.03346 24.1474 9.30087 23.9906 9.62053 23.797L9.70659 23.7494L9.89562 23.631C10.168 24.5436 10.1927 25.5122 9.96717 26.4374C9.74167 27.3627 9.27408 28.2113 8.61237 28.8962ZM17.6504 22.7489C17.2186 23.8016 16.3149 26.4987 15.7647 26.3481C15.2929 26.2221 14.9963 24.1781 15.671 22.1588C16.0116 21.1866 16.5078 20.2763 17.1402 19.4632C17.8164 18.7086 18.5633 18.4565 18.7431 18.7639C18.579 20.1392 18.2108 21.4823 17.6504 22.7489ZM25.1086 26.3174C24.9273 26.4111 24.7551 26.4711 24.6768 26.428C24.6214 26.3973 24.7551 26.2744 24.7551 26.2744C24.7551 26.2744 25.6911 25.2677 26.0599 24.8128C26.272 24.5454 26.5209 24.2319 26.7914 23.8769V23.9783C26.7914 25.1801 25.628 25.99 25.1101 26.3205L25.1086 26.3174ZM30.8625 25.0049C30.7288 24.9112 30.7518 24.5961 31.2006 23.6141C31.5126 22.9834 31.9485 22.4221 32.4823 21.9636C32.5641 22.1962 32.6067 22.4408 32.6083 22.6874C32.6143 23.2123 32.4465 23.7244 32.131 24.1439C31.8155 24.5634 31.37 24.8667 30.864 25.0065L30.8625 25.0049Z" fill="white"/>
</svg>
