<svg width="34" height="34" viewBox="0 0 34 34" fill="none" xmlns="http://www.w3.org/2000/svg">
<path d="M26.8789 16.4027C26.8789 14.6376 26.244 13.4157 25.7007 12.4645L25.5342 12.1939C24.8743 11.1323 24.2978 10.1998 24.2978 9.11322C24.2978 7.80185 25.2927 6.57791 26.6957 6.57791C26.7373 6.57791 26.7769 6.58208 26.8164 6.58416L26.8809 6.5904C24.2502 4.17404 20.8072 2.83515 17.2351 2.83949C14.8677 2.83827 12.5372 3.42611 10.4537 4.55003C8.37007 5.67394 6.59886 7.29862 5.29964 9.27766C5.63269 9.28806 5.95116 9.29639 6.21968 9.29639C7.71213 9.29639 10.0247 9.1153 10.0247 9.1153C10.7949 9.0695 10.8865 10.1998 10.1163 10.2914C10.1163 10.2914 9.34405 10.3829 8.4823 10.4267L13.6861 25.9007L16.8084 16.5214L14.5812 10.4246C13.8131 10.3788 13.0846 10.2893 13.0846 10.2893C12.3144 10.2435 12.406 9.06534 13.1741 9.11113C13.1741 9.11113 15.5345 9.29223 16.9375 9.29223C18.432 9.29223 20.7467 9.11113 20.7467 9.11113C21.5168 9.06534 21.6063 10.1977 20.8362 10.2893C20.8362 10.2893 20.0618 10.3788 19.2022 10.4246L24.3644 25.78L25.7881 21.0196L25.9005 20.6595C26.4625 18.8693 26.8768 17.5476 26.8768 16.4006L26.8789 16.4027ZM2.9496 17.125C2.94945 19.8076 3.70452 22.436 5.12839 24.7095C6.55226 26.983 8.58741 28.8097 11.001 29.9805L4.18394 11.3092C3.36763 13.1393 2.94701 15.1211 2.9496 17.125Z" fill="white"/>
<path d="M13.199 30.8277L17.4869 18.3739L21.8769 30.4051C21.906 30.4738 21.9393 30.5384 21.9789 30.6008C19.1489 31.5978 16.0766 31.6772 13.199 30.8277ZM29.7679 10.2705C29.8304 10.7264 29.8658 11.2134 29.8658 11.7401C29.8658 13.1888 29.5952 14.8186 28.7792 16.8565L24.4163 29.4705C27.6359 27.6 29.9974 24.5458 30.9975 20.9592C31.9976 17.3725 31.5571 13.5371 29.77 10.2705H29.7679Z" fill="white"/>
<path fill-rule="evenodd" clip-rule="evenodd" d="M0.582886 17.125C0.582886 7.94339 8.05349 0.472778 17.2351 0.472778C26.4147 0.472778 33.8873 7.94339 33.8873 17.125C33.8873 26.3066 26.4147 33.7772 17.2351 33.7772C8.05349 33.7772 0.582886 26.3066 0.582886 17.125ZM1.34681 17.125C1.34681 25.8862 8.47396 33.0133 17.2351 33.0133C25.9942 33.0133 33.1213 25.8862 33.1213 17.125C33.1213 8.36177 25.9942 1.2367 17.2351 1.2367C8.47188 1.2367 1.34681 8.36177 1.34681 17.125Z" fill="white"/>
</svg>
