<svg width="56" height="56" viewBox="0 0 56 56" fill="none" xmlns="http://www.w3.org/2000/svg">
<path d="M32.6578 28.0006L55.034 5.62429C56.322 4.33633 56.322 2.25454 55.034 0.966582C53.7461 -0.32138 51.6643 -0.32138 50.3763 0.966582L28.0001 23.3428L5.62368 0.966582C4.33572 -0.32138 2.25393 -0.32138 0.965972 0.966582C-0.321991 2.25454 -0.321991 4.33633 0.965972 5.62429L23.3422 28.0006L0.965972 50.3768C-0.321991 51.6648 -0.321991 53.7466 0.965972 55.0345C1.27148 55.3408 1.63448 55.5837 2.03413 55.7494C2.43379 55.915 2.86222 56 3.29483 55.9996C4.13808 55.9996 4.98134 55.6768 5.62368 55.0345L27.9999 32.6583L50.3762 55.0345C50.6817 55.3408 51.0447 55.5837 51.4444 55.7494C51.844 55.915 52.2725 56 52.7051 55.9996C53.5483 55.9996 54.3916 55.6768 55.0339 55.0345C56.3219 53.7466 56.3219 51.6648 55.0339 50.3768L32.6578 28.0006Z" fill="#8A6DF2"/>
</svg>
