<svg width="159" height="70" viewBox="0 0 159 70" fill="none" xmlns="http://www.w3.org/2000/svg">
<path d="M57.1474 38.248C57.1474 37.2443 55.5392 36.4121 53.5599 36.4121C51.6958 36.4121 49.5141 37.1291 47.9368 39.1393C45.6707 42.038 43.3175 45.7689 41.1638 48.8672C37.3486 41.8665 37.2333 38.1946 34.478 36.9885C33.5587 36.5864 32.6421 36.4149 31.7508 36.4149C29.0237 36.4149 26.7295 37.9078 26.7295 38.681L26.7576 38.7963C27.5617 40.978 27.8766 45.856 27.8766 51.0208C27.8766 57.1893 27.4183 63.788 26.7576 66.6585C26.7013 66.8891 26.6704 67.1168 26.6704 67.3192C26.6704 69.0399 28.3911 69.844 30.1145 69.844C31.838 69.844 33.5868 69.0118 33.5868 67.4064C33.5868 67.1758 33.5587 66.9172 33.4715 66.6613C33.2128 65.7729 32.3806 64.7101 32.0657 62.0982L32.2091 47.751C36.0244 54.9232 37.6326 62.2135 38.8949 62.2135C38.9821 62.2135 39.0664 62.1854 39.1536 62.1263C39.7271 61.6962 41.7655 55.9297 47.1889 47.5205V62.0982C46.7869 65.2837 45.6398 66.3436 45.6398 67.3192C45.6398 69.0118 48.5104 69.8721 51.35 69.8721C54.1896 69.8721 57.1164 69.0118 57.1164 67.2911C57.1164 67.0915 57.0883 66.8891 57.0012 66.6585C55.9693 63.8189 55.2496 57.3046 55.2496 51.1361C55.2496 45.9151 55.7669 40.9499 57.0012 38.7991C57.1164 38.6276 57.1446 38.4252 57.1446 38.2537L57.1474 38.248Z" fill="#DA5AA0"/>
<path d="M79.988 58.1621C79.988 55.5811 80.5616 53.0254 81.5653 49.6403C81.6525 49.3535 81.7087 49.0668 81.7087 48.78C81.7087 46.6292 78.9534 45.5383 76.17 45.5383C73.3866 45.5383 70.516 46.6573 70.516 48.8081C70.516 49.8118 71.3201 50.7593 71.7221 53.9448V53.6861C71.8093 55.0638 71.8093 55.8679 71.8093 56.641C71.8093 57.5885 71.7812 58.4488 71.7221 60.2566C71.6659 62.4384 71.3482 64.0157 70.1449 64.0157C68.0784 64.0157 67.0747 60.1695 67.0747 56.3261V53.9448C67.3896 51.4762 67.5611 50.4444 67.8197 49.6403C67.935 49.3254 67.9913 49.0077 67.9913 48.7209C67.9913 46.6264 65.4946 45.6226 62.9417 45.6226C60.3889 45.6226 57.6055 46.7135 57.6055 48.8362C57.6055 49.0668 57.6336 49.3535 57.7207 49.6403C57.9513 50.4444 58.8116 51.4762 59.1265 53.9448L59.1546 57.9343C59.1546 64.19 62.3682 69.8721 66.6445 69.8721C68.2218 69.8721 69.9734 69.068 71.7221 67.2602C71.7221 68.7812 74.7642 69.8721 77.4886 69.8721C79.7266 69.8721 81.7649 69.127 81.7649 67.2911C81.7649 66.9762 81.7087 66.6304 81.5653 66.2593C80.4744 63.0457 79.988 60.6081 79.988 58.1677V58.1621Z" fill="#DA5AA0"/>
<path d="M95.5975 67.3445C95.5975 66.4251 94.4223 65.3371 94.0484 62.4384V51.1332C94.4223 49.6994 95.4541 49.3845 96.6012 49.3845C98.6086 49.3845 98.7239 51.3638 98.783 54.8641V62.4384C98.409 65.4214 97.2057 66.4842 97.2057 67.4317C97.2057 69.068 99.8457 69.8692 102.514 69.8692C105.182 69.8692 108.081 69.0089 108.081 67.3726C108.081 66.4251 106.934 65.3652 106.56 62.4384V56.0984C106.388 50.8465 103.087 45.6817 96.604 45.5692C95.9433 45.5692 95.3135 45.5973 94.7091 45.6564C94.6528 44.737 93.8206 44.3378 92.6426 44.3378C89.5443 44.3378 84.0337 47.034 84.0337 49.3873C84.0337 49.7303 84.149 50.0761 84.4076 50.391C85.2679 51.4537 85.5547 53.8351 85.5547 56.5032C85.5547 60.549 84.8659 65.1965 84.2361 66.7456C84.149 66.9762 84.1208 67.1758 84.1208 67.3782C84.1208 69.0427 86.9324 69.8468 89.8029 69.8468C92.6735 69.8468 95.6003 69.0145 95.6003 67.3501L95.5975 67.3445Z" fill="#DA5AA0"/>
<path d="M93.7309 43.0107H93.8743C98.7804 42.8392 97.7767 38.4757 99.4411 37.6463C99.6716 37.846 99.756 38.3352 99.7841 38.9368C99.8994 41.6921 99.8994 42.8111 101.162 42.8674C102.022 42.8674 102.77 41.4335 102.882 39.0212C102.882 37.1853 101.963 35.3774 100.012 34.8039C99.4945 34.6605 99.0081 34.6043 98.547 34.6043C96.0223 34.6043 94.7318 36.4683 93.5538 38.4786C93.4975 38.5348 93.4104 38.6782 93.2951 38.7653C93.1798 38.6782 93.0646 38.4786 93.0364 38.3914L92.8649 37.8741C92.2323 35.4646 91.7741 34.6043 91.2005 34.5171C90.4555 34.5171 89.2493 36.1534 89.2212 38.4476C89.2212 40.7418 90.9137 43.0107 93.7253 43.0107H93.7309Z" fill="#DA5AA0"/>
<path d="M120.789 45.5636C112.869 45.5636 108.91 51.6168 108.91 57.701C108.91 63.7851 112.9 69.8665 120.789 69.8665H121.019C127.992 69.8665 131.492 63.8976 131.492 57.8725C131.492 51.8474 127.933 45.707 120.789 45.5636ZM120.789 65.8235C118.953 65.8235 118.034 61.7215 118.034 57.6166C118.034 53.5118 118.953 49.4379 120.789 49.4379C122.366 49.4379 123.17 53.5118 123.17 57.6166C123.17 61.7215 122.366 65.8235 120.789 65.8235Z" fill="#DA5AA0"/>
<path d="M154.533 59.1067C152.869 59.1067 151.291 59.9952 151.089 61.9464C150.889 63.8695 149.683 65.9922 148.393 65.9922H148.078C146.931 65.9922 146.441 65.9641 146.441 65.6182C146.441 65.2443 146.928 64.5555 147.76 63.2088C149.683 60.0514 152.149 56.925 154.072 53.7677C155.736 51.4735 158.576 49.2917 158.576 47.7707C158.576 46.5955 156.968 45.8195 152.034 45.648C150.715 45.5917 149.481 45.5917 148.331 45.5917C136.393 45.5917 134.501 48.1755 133.179 53.2813C133.123 53.5399 133.092 53.7677 133.092 53.9701C133.092 55.8651 135.187 56.925 137.225 56.925C139.089 56.925 140.956 56.0366 141.156 54.1135C141.358 52.2185 142.159 50.0677 143.45 50.0677C144.884 50.0677 145.573 50.1239 145.573 50.7565C145.573 52.3338 140.81 58.3027 138.37 62.3203L138.457 62.1769C136.879 64.4149 134.239 66.4533 134.239 67.8872C134.239 69.1214 136.191 69.8665 142.359 69.8665H144.024C153.692 69.8665 158.658 69.695 158.658 62.8067C158.658 60.3972 156.535 59.1039 154.525 59.1039L154.533 59.1067Z" fill="#DA5AA0"/>
<path d="M0.00281153 30.9043C0.00281153 32.625 1.72347 33.4291 3.44693 33.4291C5.1704 33.4291 6.91917 32.5969 6.91917 30.9915C6.91917 30.7609 6.89105 30.5023 6.8039 30.2464C6.54524 29.358 5.71302 28.2952 5.39813 25.6833L5.54152 11.3361C9.35676 18.5083 10.965 25.7986 12.2273 25.7986C12.3145 25.7986 12.3988 25.7705 12.486 25.7114C13.0595 25.2813 15.0979 19.5148 20.5213 11.1055V25.6833C20.1193 28.8688 18.9722 29.9287 18.9722 30.9043C18.9722 32.5968 21.8428 33.4572 24.6824 33.4572C27.522 33.4572 30.4488 32.5968 30.4488 30.8734C30.4488 30.6738 30.4207 30.4713 30.3336 30.2408C29.3017 27.4011 28.582 20.8868 28.582 14.7183C28.582 9.49734 29.0993 4.53218 30.3336 2.38136C30.4488 2.20986 30.477 2.00743 30.477 1.83593C30.477 0.832212 28.8688 0 26.8894 0C25.0254 0 22.8437 0.716939 21.2664 2.72718C19.0003 5.62587 16.6471 9.35676 14.4934 12.4551C10.6782 5.45155 10.5629 1.7797 7.80761 0.573552C6.88824 0.171503 5.97168 0 5.08043 0C2.35606 0 0.0590421 1.49292 0.0590421 2.26609L0.0871573 2.38136C0.891254 4.56311 1.20615 9.44111 1.20615 14.6059C1.20615 20.7744 0.747866 27.373 0.0871573 30.2436C0.0309268 30.4741 0 30.7019 0 30.9043H0.00281153Z" fill="#DA5AA0"/>
<path d="M34.4356 20.7463C34.4356 24.5053 33.6315 28.8097 32.8583 30.6738C32.7712 30.8734 32.7149 31.0758 32.7149 31.2473C32.7149 32.7403 35.4702 33.4572 38.2817 33.4572C41.0933 33.4572 44.1353 32.6812 44.1353 31.1911C44.1353 31.0196 44.1072 30.8453 44.0482 30.6738C43.1007 28.3205 42.6424 26.8276 42.6424 24.4181H42.6705L42.6424 13.6584C42.6424 11.9378 43.1597 11.7635 43.3031 10.099C43.3031 9.60983 43.275 9.15155 42.4428 9.15155C40.0614 9.15155 32.6587 11.7916 32.6587 14.0014C32.6587 14.2601 32.774 14.5188 33.0326 14.7774C34.0645 15.8402 34.4384 18.1625 34.4384 20.7463H34.4356Z" fill="#DA5AA0"/>
<path d="M56.4446 33.4572C61.4378 33.4572 64.508 29.4986 65.4246 25.509C65.4808 25.2222 65.5117 24.9636 65.5117 24.733C65.5117 22.81 63.732 21.8062 61.8399 21.8062C59.9477 21.8062 57.8812 22.8971 57.6507 25.1351C57.4511 27.2297 57.766 29.5548 56.4446 29.5548C54.4652 29.5548 53.4896 25.1632 53.4615 21.5785C53.4615 17.6199 54.35 13.0849 56.4446 13.0849C57.7632 13.0849 57.4483 15.3229 57.6507 17.4174C57.8812 19.6835 59.9168 20.7463 61.868 20.7463C63.8192 20.7463 65.5117 19.7426 65.5117 17.8476C65.5117 17.5889 65.4836 17.3303 65.4246 17.0435C64.5052 13.0849 61.2354 9.15155 56.4446 9.15155C48.4964 9.29494 45.1956 15.5787 45.0522 21.0021C45.0522 26.7967 49.6997 33.3391 56.4446 33.4544V33.4572Z" fill="#DA5AA0"/>
<path d="M78.7399 18.5927C74.2359 21.1764 67.4629 20.3442 67.4629 26.7123C67.4629 27.3421 67.5191 28.031 67.6625 28.8069C68.2642 32.0767 71.8517 33.4544 74.5479 33.4544L75.0062 33.4263C79.0239 33.1957 79.3388 30.5557 80.4015 30.0412C80.4015 32.5097 82.8391 33.4572 85.2795 33.4572C87.7199 33.4572 90.3009 32.4816 90.3009 31.1321C90.3009 30.2436 89.21 29.4958 88.808 26.3693V20.0575C88.6365 15.3228 86.5419 9.26963 79.052 9.15436C71.9079 9.15436 68.8096 12.2527 67.9184 15.7249C67.8621 15.9554 67.8312 16.1832 67.8312 16.4137C67.8312 18.1934 69.7543 19.4839 71.7617 19.4839C73.5976 19.4558 76.4963 18.5364 76.4963 16.3266C76.4963 15.6968 75.979 15.1795 75.979 14.6059C75.979 13.9171 77.2414 12.8262 78.619 12.8262C79.7942 12.8262 80.5983 14.2882 80.5983 15.7249C80.5983 16.7286 80.1401 17.7914 78.7343 18.5955L78.7399 18.5927ZM80.4015 22.4669V24.9355C80.4015 25.6243 80.1148 26.2569 79.0829 27.0019C78.3069 27.5474 77.1036 27.9494 76.1561 27.9494C75.2086 27.9494 74.5479 27.5755 74.5479 26.6589C74.6632 24.3338 76.5863 23.9036 79.4541 22.0396C79.7127 21.8681 79.8842 21.7809 80.0276 21.7809C80.3144 21.7809 80.4015 22.1239 80.4015 22.4698V22.4669Z" fill="#DA5AA0"/>
<path d="M102.469 33.4572C107.434 33.4572 110.532 31.1911 111.449 27.2015C111.505 26.8866 111.564 26.5999 111.564 26.3412C111.564 24.4771 109.956 23.5015 108.294 23.5015C106.543 23.5015 104.679 24.5643 104.448 26.8304C104.249 28.925 103.787 30.0159 102.469 30.0159C100.717 30.0159 99.857 25.2812 99.5702 23.8193C99.8289 23.8755 100.116 23.8755 100.431 23.8755C101.291 23.8755 102.325 23.7321 103.473 23.4172C107.403 22.3544 111.365 20.8924 111.365 16.245C111.336 12.1992 105.826 9.21618 102.528 9.15714C95.8421 9.15714 91.0513 15.6996 91.0513 21.2945L91.0794 21.5532C91.2228 26.9766 95.9855 33.3475 102.472 33.46L102.469 33.4572ZM101.521 13.0567C102.955 13.0567 104.504 14.6059 104.906 15.6967C105.05 16.0707 105.106 16.4418 105.106 16.7595C105.106 18.5673 103.326 19.7144 101.721 19.7144C100.228 19.7144 99.1963 18.8822 99.1681 16.8748C99.1681 14.3781 100.315 13.0595 101.521 13.0595V13.0567Z" fill="#DA5AA0"/>
<path d="M114.491 16.0116C114.491 21.5785 113.774 27.9494 112.827 30.3308C112.711 30.5894 112.683 30.8171 112.683 31.0477C112.683 32.7121 115.264 33.4572 117.963 33.4572C120.977 33.4572 124.132 32.5378 124.132 30.8453C124.132 29.8978 123.041 29.0937 122.611 25.6243V25.3375C122.611 21.7219 122.324 16.5852 122.324 11.8815C122.324 8.26589 122.496 4.90892 123.1 2.67095C123.215 2.2689 123.272 1.83873 123.272 1.49573C123.272 1.1218 123.215 0.835019 123.041 0.607286C122.954 0.492013 122.754 0.463898 122.439 0.463898C120.173 0.463898 112.596 3.21919 112.596 5.71583C112.596 6.00261 112.711 6.3175 112.97 6.60427C114.061 7.83853 114.491 11.6819 114.491 16.0145V16.0116Z" fill="#DA5AA0"/>
<path d="M136.73 18.5927C132.226 21.1764 125.453 20.3442 125.453 26.7123C125.453 27.3421 125.509 28.031 125.653 28.8069C126.254 32.0767 129.842 33.4544 132.538 33.4544L132.996 33.4263C137.014 33.1957 137.329 30.5557 138.392 30.0412C138.392 32.5097 140.829 33.4572 143.27 33.4572C145.71 33.4572 148.291 32.4816 148.291 31.1321C148.291 30.2436 147.2 29.4958 146.798 26.3693V20.0575C146.627 15.3228 144.532 9.26963 137.042 9.15436C129.898 9.15436 126.8 12.2527 125.909 15.7249C125.852 15.9554 125.821 16.1832 125.821 16.4137C125.821 18.1934 127.745 19.4839 129.752 19.4839C131.588 19.4558 134.487 18.5364 134.487 16.3266C134.487 15.6968 133.969 15.1795 133.969 14.6059C133.969 13.9171 135.232 12.8262 136.609 12.8262C137.784 12.8262 138.589 14.2882 138.589 15.7249C138.589 16.7286 138.13 17.7914 136.725 18.5955L136.73 18.5927ZM138.395 22.4669V24.9355C138.395 25.6243 138.108 26.2569 137.076 27.0019C136.3 27.5474 135.097 27.9494 134.149 27.9494C133.202 27.9494 132.541 27.5755 132.541 26.6589C132.656 24.3338 134.579 23.9036 137.447 22.0396C137.706 21.8681 137.877 21.7809 138.021 21.7809C138.307 21.7809 138.395 22.1239 138.395 22.4698V22.4669Z" fill="#DA5AA0"/>
</svg>
