<?xml version="1.0" encoding="UTF-8"?>
<svg id="Capa_2" data-name="Capa 2" xmlns="http://www.w3.org/2000/svg" viewBox="0 0 1147.36 481.82">
  <defs>
    <style>
      .cls-1 {
        fill: #ffffff;
        stroke-width: 0px;
      }
    </style>
  </defs>
  <g id="Capa_1-2" data-name="Capa 1">
    <g>
      <polygon class="cls-1" points="925.49 368.95 919.71 350.39 918.44 350.39 912.59 368.99 907.24 350.39 903.46 350.39 911.86 377.38 913.01 377.38 918.93 359.03 925.28 377.38 926.42 377.38 934.71 350.39 930.93 350.39 925.49 368.95"/>
      <polygon class="cls-1" points="941.39 377.02 957.1 377.02 957.1 373.75 945.03 373.75 945.03 364.15 953.83 364.15 953.83 361.06 945.03 361.06 945.03 353.66 957.3 353.66 957.3 350.39 941.39 350.39 941.39 377.02"/>
      <path class="cls-1" d="M975.89,362.01c1.11-.25,2.13-.89,3.05-1.91.92-1.02,1.38-2.14,1.38-3.38,0-2.11-.72-3.73-2.16-4.86-1.44-1.13-3.48-1.7-6.11-1.7-1.43,0-3.76.08-7,.24v26.63h7.6c2.76,0,5-.7,6.72-2.09,1.71-1.39,2.57-3.26,2.57-5.6,0-2.02-.48-3.62-1.45-4.8-.96-1.18-2.5-2.02-4.61-2.53ZM968.69,353.3c.96-.09,2.04-.13,3.25-.13,3.16,0,4.74,1.23,4.74,3.69,0,2.8-1.72,4.2-5.16,4.2-1.13,0-2.07-.04-2.84-.11v-7.65ZM976.55,372.83c-1.05.85-2.71,1.28-4.99,1.28-.67,0-1.62-.06-2.87-.18v-10.16l2.93-.09c2.34,0,4.01.41,5.01,1.24,1,.82,1.5,2.1,1.5,3.84,0,1.87-.52,3.23-1.57,4.08Z"/>
      <path class="cls-1" d="M1011.34,350.21c-.96,0-3.14.06-6.56.18v26.63h5.36c8.86,0,13.29-4.8,13.29-14.4,0-3.76-1.08-6.76-3.25-9.02-2.17-2.26-5.11-3.39-8.83-3.39ZM1017.43,370.89c-1.45,1.91-3.45,2.86-6,2.86-1.2,0-2.21-.06-3.02-.18v-19.9c1.47-.12,2.37-.18,2.71-.18,5.66,0,8.49,3.15,8.49,9.45,0,3.39-.73,6.04-2.18,7.95Z"/>
      <polygon class="cls-1" points="1031.33 377.02 1047.04 377.02 1047.04 373.75 1034.97 373.75 1034.97 364.15 1043.77 364.15 1043.77 361.06 1034.97 361.06 1034.97 353.66 1047.24 353.66 1047.24 350.39 1031.33 350.39 1031.33 377.02"/>
      <path class="cls-1" d="M1063.77,362.66l-2.18-1.04c-1.41-.68-2.34-1.21-2.79-1.58-.45-.38-.81-.84-1.06-1.4-.25-.56-.38-1.18-.38-1.85,0-1.1.35-2.01,1.06-2.71.71-.7,1.68-1.05,2.92-1.05.85,0,1.77.16,2.76.49.99.33,1.73.67,2.22,1.02l1.07-3.16c-1.15-.96-3.2-1.44-6.14-1.44-2.21,0-4.01.65-5.42,1.96-1.41,1.31-2.11,2.96-2.11,4.94,0,1.64.36,3.04,1.08,4.2.72,1.16,1.99,2.17,3.81,3.02l2.14,1c1.93.91,3.13,1.75,3.61,2.52.48.77.72,1.6.72,2.5,0,1.2-.43,2.19-1.29,2.96-.86.77-2,1.16-3.42,1.16-.8,0-1.71-.17-2.72-.5-1.01-.33-1.86-.75-2.54-1.25l-1.33,3.34c1.67,1.11,3.69,1.67,6.05,1.67,2.69,0,4.84-.7,6.44-2.09,1.61-1.39,2.41-3.09,2.41-5.09,0-1.84-.37-3.36-1.1-4.55-.73-1.19-2.01-2.22-3.83-3.08Z"/>
      <rect class="cls-1" x="1077.26" y="350.39" width="3.64" height="26.63"/>
      <path class="cls-1" d="M1103.1,366.22h3.69v6.23c-1.2,1.16-2.77,1.74-4.71,1.74-2.73,0-4.88-.94-6.46-2.82s-2.37-4.36-2.37-7.43c0-3.24.81-5.83,2.42-7.8,1.61-1.96,3.81-2.94,6.6-2.94,1.76,0,3.55.68,5.38,2.04l1.51-3c-1.74-1.54-4-2.31-6.78-2.31-3.96,0-7.11,1.28-9.44,3.85-2.33,2.56-3.5,5.9-3.5,10.02s1.06,7.44,3.19,9.93c2.13,2.49,5.03,3.74,8.7,3.74,1.64,0,3.32-.25,5.05-.75,1.73-.5,3.08-1.17,4.05-1.99v-11.6h-7.33v3.09Z"/>
      <polygon class="cls-1" points="1134.45 368.8 1121.05 350.39 1119.6 350.39 1119.6 377.02 1123.05 377.02 1123.05 357.92 1136.81 377.38 1137.9 377.38 1137.9 350.39 1134.45 350.39 1134.45 368.8"/>
      <path class="cls-1" d="M786.28,214.75c0-3.57-5.72-6.53-12.76-6.53-6.63,0-14.39,2.55-20,9.7-8.06,10.31-16.43,23.58-24.09,34.6-13.57-24.9-13.98-37.96-23.78-42.25-3.27-1.43-6.53-2.04-9.7-2.04-9.7,0-17.86,5.31-17.86,8.06l.1.41c2.86,7.76,3.98,25.11,3.98,43.48,0,21.94-1.63,45.41-3.98,55.62-.2.82-.31,1.63-.31,2.35,0,6.12,6.12,8.98,12.25,8.98s12.35-2.96,12.35-8.67c0-.82-.1-1.74-.41-2.65-.92-3.16-3.88-6.94-5-16.23l.51-51.03c13.57,25.51,19.29,51.44,23.78,51.44.31,0,.61-.1.92-.31,2.04-1.53,9.29-22.04,28.58-51.95v51.85c-1.43,11.33-5.51,15.1-5.51,18.57,0,6.02,10.21,9.08,20.31,9.08s20.51-3.06,20.51-9.18c0-.71-.1-1.43-.41-2.25-3.67-10.1-6.23-33.27-6.23-55.21,0-18.57,1.84-36.23,6.23-43.88.41-.61.51-1.33.51-1.94Z"/>
      <path class="cls-1" d="M867.52,285.57c0-9.18,2.04-18.27,5.61-30.31.31-1.02.51-2.04.51-3.06,0-7.65-9.8-11.53-19.7-11.53s-20.11,3.98-20.11,11.63c0,3.57,2.86,6.94,4.29,18.27v-.92c.31,4.9.31,7.76.31,10.51,0,3.37-.1,6.43-.31,12.86-.2,7.76-1.33,13.37-5.61,13.37-7.35,0-10.92-13.68-10.92-27.35v-8.47c1.12-8.78,1.73-12.45,2.65-15.31.41-1.12.61-2.25.61-3.27,0-7.45-8.88-11.02-17.96-11.02s-18.98,3.88-18.98,11.43c0,.82.1,1.84.41,2.86.82,2.86,3.88,6.53,5,15.31l.1,14.19c0,22.25,11.43,42.46,26.64,42.46,5.61,0,11.84-2.86,18.06-9.29,0,5.41,10.82,9.29,20.51,9.29,7.96,0,15.21-2.65,15.21-9.18,0-1.12-.2-2.35-.71-3.67-3.88-11.43-5.61-20.1-5.61-28.78Z"/>
      <path class="cls-1" d="M923.03,318.23c0-3.27-4.18-7.14-5.51-17.45v-40.21c1.33-5.1,5-6.22,9.08-6.22,7.14,0,7.55,7.04,7.76,19.49v26.94c-1.33,10.61-5.61,14.39-5.61,17.76,0,5.82,9.39,8.67,18.88,8.67s19.8-3.06,19.8-8.88c0-3.37-4.08-7.14-5.41-17.55v-22.55c-.61-18.68-12.35-37.05-35.41-37.45-2.35,0-4.59.1-6.74.31-.2-3.27-3.16-4.69-7.35-4.69-11.02,0-30.62,9.59-30.62,17.96,0,1.22.41,2.45,1.33,3.57,3.06,3.78,4.08,12.25,4.08,21.74,0,14.39-2.45,30.92-4.69,36.43-.31.82-.41,1.53-.41,2.25,0,5.92,10,8.78,20.21,8.78s20.62-2.96,20.62-8.88Z"/>
      <path class="cls-1" d="M916.4,231.69h.51c17.45-.61,13.88-16.13,19.8-19.08.82.71,1.12,2.45,1.22,4.59.41,9.8.41,13.78,4.9,13.98,3.06,0,5.72-5.1,6.12-13.68,0-6.53-3.27-12.96-10.21-15-1.84-.51-3.57-.71-5.21-.71-8.98,0-13.57,6.63-17.76,13.78-.2.2-.51.71-.92,1.02-.41-.31-.82-1.02-.92-1.33l-.61-1.84c-2.25-8.57-3.88-11.63-5.92-11.94-2.65,0-6.94,5.82-7.04,13.98,0,8.16,6.02,16.23,16.02,16.23Z"/>
      <path class="cls-1" d="M1012.64,240.77c-28.17,0-42.25,21.53-42.25,43.17s14.19,43.27,42.25,43.27h.82c24.8,0,37.25-21.23,37.25-42.66s-12.66-43.27-38.07-43.78ZM1012.64,312.82c-6.53,0-9.8-14.59-9.8-29.19s3.27-29.09,9.8-29.09c5.61,0,8.47,14.49,8.47,29.09s-2.86,29.19-8.47,29.19Z"/>
      <path class="cls-1" d="M1132.66,288.94c-5.92,0-11.53,3.16-12.25,10.1-.71,6.84-5,14.39-9.59,14.39h-1.12c-4.08,0-5.82-.1-5.82-1.33,0-1.33,1.73-3.78,4.69-8.57,6.84-11.23,15.61-22.35,22.45-33.58,5.92-8.16,16.02-15.92,16.02-21.33,0-4.18-5.72-6.94-23.27-7.55-4.69-.2-9.08-.2-13.17-.2-42.46,0-49.19,9.19-53.89,27.35-.2.92-.31,1.73-.31,2.45,0,6.74,7.45,10.51,14.7,10.51,6.63,0,13.27-3.16,13.98-10,.72-6.74,3.57-14.39,8.16-14.39,5.1,0,7.55.2,7.55,2.45,0,5.61-16.94,26.84-25.62,41.13l.31-.51c-5.61,7.96-15,15.21-15,20.31,0,4.39,6.94,7.04,28.88,7.04h5.92c34.39,0,52.05-.61,52.05-25.11,0-8.57-7.55-13.17-14.7-13.17Z"/>
      <path class="cls-1" d="M583.03,188.62c0,6.12,6.12,8.98,12.25,8.98s12.35-2.96,12.35-8.67c0-.82-.1-1.74-.41-2.65-.92-3.16-3.88-6.94-5-16.23l.51-51.03c13.57,25.51,19.29,51.44,23.78,51.44.31,0,.61-.1.92-.31,2.04-1.53,9.29-22.04,28.58-51.95v51.85c-1.43,11.33-5.51,15.1-5.51,18.57,0,6.02,10.21,9.08,20.31,9.08s20.51-3.06,20.51-9.19c0-.71-.1-1.43-.41-2.25-3.67-10.1-6.23-33.27-6.23-55.21,0-18.57,1.84-36.23,6.23-43.88.41-.61.51-1.33.51-1.94,0-3.57-5.72-6.53-12.76-6.53-6.63,0-14.39,2.55-20,9.7-8.06,10.31-16.43,23.58-24.09,34.6-13.57-24.9-13.98-37.96-23.78-42.25-3.27-1.43-6.53-2.04-9.7-2.04-9.7,0-17.86,5.31-17.86,8.06l.1.41c2.86,7.76,3.98,25.11,3.98,43.48,0,21.94-1.63,45.41-3.98,55.62-.2.82-.31,1.63-.31,2.35Z"/>
      <path class="cls-1" d="M705.5,152.49c0,13.37-2.86,28.68-5.61,35.31-.31.71-.51,1.43-.51,2.04,0,5.31,9.8,7.86,19.8,7.86s20.82-2.76,20.82-8.06c0-.61-.1-1.23-.31-1.84-3.37-8.37-5-13.68-5-22.25h.1l-.1-38.27c0-6.12,1.84-6.74,2.35-12.66,0-1.74-.1-3.37-3.06-3.37-8.47,0-34.8,9.39-34.8,17.25,0,.92.41,1.84,1.33,2.76,3.67,3.78,5,12.04,5,21.23Z"/>
      <path class="cls-1" d="M783.78,197.71c17.76,0,28.68-14.08,31.94-28.27.2-1.02.31-1.94.31-2.76,0-6.84-6.33-10.41-13.06-10.41s-14.08,3.88-14.9,11.84c-.71,7.45.41,15.72-4.29,15.72-7.04,0-10.51-15.62-10.61-28.37,0-14.08,3.16-30.21,10.61-30.21,4.69,0,3.57,7.96,4.29,15.41.82,8.06,8.06,11.84,15,11.84s12.96-3.57,12.96-10.31c0-.92-.1-1.84-.31-2.86-3.27-14.08-14.9-28.07-31.94-28.07-28.27.51-40.01,22.86-40.52,42.15,0,20.61,16.53,43.88,40.52,44.29Z"/>
      <path class="cls-1" d="M863.07,144.84c-16.02,9.19-40.11,6.23-40.11,28.88,0,2.24.2,4.69.71,7.45,2.14,11.63,14.9,16.53,24.49,16.53l1.63-.1c14.29-.82,15.41-10.21,19.19-12.04,0,8.78,8.67,12.15,17.35,12.15s17.86-3.47,17.86-8.27c0-3.16-3.88-5.82-5.31-16.94v-22.45c-.61-16.84-8.06-38.37-34.7-38.78-25.41,0-36.43,11.02-39.6,23.37-.2.82-.31,1.63-.31,2.45,0,6.33,6.84,10.92,13.98,10.92,6.53-.1,16.84-3.37,16.84-11.23,0-2.24-1.84-4.08-1.84-6.12,0-2.45,4.49-6.33,9.39-6.33,4.18,0,7.04,5.2,7.04,10.31,0,3.57-1.63,7.35-6.63,10.21ZM868.99,158.62v8.78c0,2.45-1.02,4.7-4.69,7.35-2.76,1.94-7.04,3.37-10.41,3.37s-5.72-1.33-5.72-4.59c.41-8.27,7.25-9.8,17.45-16.43.92-.61,1.53-.92,2.04-.92,1.02,0,1.33,1.22,1.33,2.45Z"/>
      <path class="cls-1" d="M947.48,197.71c17.66,0,28.68-8.06,31.94-22.25.2-1.12.41-2.14.41-3.06,0-6.63-5.72-10.1-11.63-10.1-6.23,0-12.86,3.78-13.68,11.84-.71,7.45-2.35,11.33-7.04,11.33-6.23,0-9.29-16.84-10.31-22.04.92.2,1.94.2,3.06.2,3.06,0,6.74-.51,10.82-1.63,13.98-3.78,28.07-8.98,28.07-25.51-.1-14.39-19.7-25-31.43-25.21-23.78,0-40.82,23.27-40.82,43.17l.1.92c.51,19.29,17.45,41.95,40.52,42.35ZM944.11,125.14c5.1,0,10.61,5.51,12.04,9.39.51,1.33.71,2.65.71,3.78,0,6.43-6.33,10.51-12.04,10.51-5.31,0-8.98-2.96-9.08-10.1,0-8.88,4.08-13.57,8.37-13.57Z"/>
      <path class="cls-1" d="M990.24,135.65c0,19.8-2.55,42.46-5.92,50.93-.41.92-.51,1.73-.51,2.55,0,5.92,9.18,8.57,18.78,8.57,10.72,0,21.94-3.27,21.94-9.29,0-3.37-3.88-6.23-5.41-18.57v-1.02c0-12.86-1.02-31.13-1.02-47.86,0-12.86.61-24.8,2.76-32.76.41-1.43.61-2.96.61-4.18,0-1.33-.2-2.35-.82-3.16-.31-.41-1.02-.51-2.14-.51-8.06,0-35.01,9.8-35.01,18.68,0,1.02.41,2.14,1.33,3.16,3.88,4.39,5.41,18.06,5.41,33.47Z"/>
      <path class="cls-1" d="M1069.33,144.84c-16.02,9.19-40.11,6.23-40.11,28.88,0,2.24.2,4.69.71,7.45,2.14,11.63,14.9,16.53,24.49,16.53l1.63-.1c14.29-.82,15.41-10.21,19.19-12.04,0,8.78,8.67,12.15,17.35,12.15s17.86-3.47,17.86-8.27c0-3.16-3.88-5.82-5.31-16.94v-22.45c-.61-16.84-8.06-38.37-34.7-38.78-25.41,0-36.43,11.02-39.6,23.37-.2.82-.31,1.63-.31,2.45,0,6.33,6.84,10.92,13.98,10.92,6.53-.1,16.84-3.37,16.84-11.23,0-2.24-1.84-4.08-1.84-6.12,0-2.45,4.49-6.33,9.39-6.33,4.18,0,7.04,5.2,7.04,10.31,0,3.57-1.63,7.35-6.63,10.21ZM1075.25,158.62v8.78c0,2.45-1.02,4.7-4.69,7.35-2.76,1.94-7.04,3.37-10.41,3.37s-5.72-1.33-5.72-4.59c.41-8.27,7.25-9.8,17.45-16.43.92-.61,1.53-.92,2.04-.92,1.02,0,1.33,1.22,1.33,2.45Z"/>
      <path class="cls-1" d="M725.1,391.42c-6.91-10.02-14.81-19.14-24.91-26.09-7.93-5.45-16.64-7.65-26.22-5.42-6.3,1.47-11.76,4.62-16.8,8.52-12.69-18.87-30.47-39.41-49.48-43.06-10.67-2.05-20.56,1.12-29.4,9.43l-.21.2c-10.64,11.07-21.26,16.13-31.58,15.03-5.91-.63-11.19-3.18-15.62-6.32l-6.39-13.99h-7.3c-.46-.66-.71-1.05-.72-1.08l-1.76,1.08h-17.9c2.01-3.74,3.95-7.59,5.8-11.57h19.96V30.85c0-17.36-13.49-30.85-32.78-30.85H79.06c-17.36,0-32.78,13.49-32.78,30.85v287.31h77.12c1.85,3.97,3.86,7.83,6.06,11.57H44.35L3.86,418.43h561.12l-26.64-58.34c2.19.64,4.47,1.12,6.86,1.38,14.03,1.51,27.84-4.67,41.06-18.38,6.05-5.65,12.34-7.75,19.24-6.42,15.33,2.94,31.48,22.01,43.56,40.39-2.48,3.9-3.97,8.33-4.24,13.33-.29,5.32-.15,10.8.84,16.01,1.35,7.14,3.68,14.1,5.65,21.12.16.57.71,1.03,1.14,1.62.17.83.21,1.96.63,2.92,3.72,8.59,8.29,16.68,13.94,24.17,5.74,7.61,12.04,14.63,20.17,19.79,6.65,4.22,13.9,6.38,21.81,5.65,5.12-.47,9.87-2.28,14.54-4.47,6.4-3,11.53-7.35,15.27-13.28,5.89-9.33,6.24-19.58,4.26-29.99-2.94-15.43-9.06-29.59-17.97-42.52ZM88.7,277.67V40.49h393.37v133.07c-8.7-8.83-19.01-16.92-30.88-24.19-18.88-11.57-41.21-20.65-64.61-26.28-31.17-7.5-60.2-10.35-88.75-8.74-39.01,2.21-69.02,8.67-94.45,20.36-17.14,7.88-41.73,21.87-61.5,43.79-20.76,23-31.44,49.37-31.76,78.37-.08,6.95.38,13.92,1.35,20.81h-22.76ZM133.1,318.16c-6.3-12.53-10.73-26.33-12.88-40.49-1.04-6.86-1.54-13.79-1.46-20.7.75-67.03,61.95-102.34,88.23-114.41,24.41-11.23,53.43-17.45,91.33-19.59,27.7-1.59,55.91,1.22,86.24,8.52,40.99,9.86,76.06,29.85,97.51,54.97,4.23,4.95,7.92,10.09,11.04,15.39,16.57,28.27,16.85,75.9,6.74,100.98-2.14,5.31-4.42,10.42-6.82,15.33-1.93,3.99-3.97,7.86-6.08,11.57-10.06,17.75-21.96,32.4-35.55,43.77-19.07,15.96-45.13,27.72-69.71,31.46-13.15,1.99-22.35,1.5-26.6-1.45-3.29-2.28-4.67-5.91-6.22-10.78.4-6.19,2.05-10.69,4.88-13.38,2.4-2.29,5.9-3.55,10.67-3.84,5.84-.37,12.55.76,19.01,1.83h.05s.07.05.07.05c.86.47,1.86.63,2.84.44,3.02.51,6.22.98,9.2,1.14,7.12.44,17.24-2.19,21.84-7.36.77-.86,1.16-1.97,1.1-3.13-.08-1.14-.59-2.21-1.44-2.97-.87-.77-1.98-1.15-3.13-1.09-1.15.07-2.21.58-2.98,1.44-2.3,2.59-9.69,4.82-14.88,4.5-1.25-.08-2.66-.22-4.35-.45,2.15-7.37.79-14.53-3.74-19.43-5.45-5.9-14.43-7.65-24.65-4.82-3.28.91-11.61,3.16-20.92,5.24-.49-9.62-4.43-16.41-11.69-20.23-.63-.33-1.3-.64-1.98-.93-7.21-3.01-17.3-3.65-32.24-2.04-.35.03-.74.08-1.13.1-.15-.28-.33-.56-.55-.81-2.31-2.66-4.44-5.62-6.31-8.83-6.91-11.74-10.55-26.59-7.68-40.49.95-4.73,2.68-9.33,5.27-13.68,7.55-12.66,20.08-25.84,30.15-35.91l.07-.08c2.71-3.09,6.29-8.47,10.44-14.68,3.23-4.85,6.58-9.87,9.95-14.46,7.55-10.28,13.95-16.49,18.06-17.49l1.24-.08.95.47c3.67,2.51,4.88,10.14,6.14,18.23,1.03,6.63,2.22,14.17,5,20.34.75,1.68,2.48,2.69,4.31,2.54,10.34-.91,22.65,2.74,34.55,6.26,8.8,2.59,17.87,5.28,26.19,6.17,1.08.12,2.16-.18,3.04-.85,2.36-1.76,6.02-5.74,10.24-10.33,2-2.19,4.06-4.44,6.07-6.54,8.67-9.05,12.89-11.43,13.93-11.43h.03c1.02.02,4.13.1,6.3,9.14,1.04,4.26,1.51,8.79,1.97,13.18.24,2.37.47,4.6.78,6.65,1.09,7.88,1.29,15.61,1.51,23.79.08,3.45.18,7.04.33,10.63.06,1.16.56,2.22,1.4,2.99.85.78,1.96,1.18,3.12,1.14.06,0,.1,0,.16-.01,1.08-.08,2.08-.58,2.83-1.39.78-.85,1.17-1.96,1.13-3.11-.15-3.29-.24-6.71-.32-10.02-.21-8.26-.43-16.8-1.61-25.26-.23-1.54-.43-3.47-.67-5.72-.34-3.2-.74-6.96-1.36-10.57-.25-1.5-.53-2.96-.86-4.34-2.48-10.27-7.36-15.57-14.52-15.73-6.27-.15-13.79,7.2-20.4,14.09-2.45,2.56-4.8,5.13-6.88,7.4-2.84,3.12-5.31,5.8-7.05,7.42l-5-.83c-5.21-1.1-10.81-2.76-16.76-4.49-10.39-3.05-21.13-6.19-31.15-6.88h-.05l-4.27.02-1.05-3.04c-.99-3.73-1.63-7.87-2.25-11.88-1.79-11.46-3.66-23.3-13.58-26.45l-.56-.15-.13-.02c-9.9-1.44-20.06,10.5-27.8,21.06-3.91,5.31-7.51,10.74-10.67,15.52-2.85,4.29-5.31,8.01-7.37,10.72l-1.75,2.17-3.57,3.6c-8.26,8.4-20.08,21.03-27.71,33.78-3.31,5.56-5.54,11.65-6.65,18.12-1.05,6.02-1.13,12.34-.2,18.83,1.06,7.43,3.4,14.83,6.83,21.66,1.64,3.29,3.53,6.45,5.65,9.42-5.68-.43-12.22-1.25-18.76-2.39-9.39-1.62-17.77-3.7-22.93-5.69l-.45-.2s.06-.07.08-.1c.22-.33.45-.68.69-1.04,1.82-2.77,3.89-6.45,3.81-11.63-.15-9.02-1.67-12.92-3.27-17.03-.76-1.96-1.56-3.97-2.28-6.69-.28-.99-.89-1.86-1.73-2.44l-.09-.26c-.47-1.17-1.44-2.04-2.6-2.43-.44-.15-.9-.23-1.37-.23h-.01c-.47,0-.94.08-1.38.23-.62.21-1.18.55-1.66,1.02-.82.81-1.28,1.9-1.28,3.05,0,.77.07,1.44.22,2.07.33,1.41,1.12,2.63,2.2,3.44l.3,1c.54,1.64,1.07,2.98,1.58,4.27,1.45,3.69,2.6,6.59,2.73,14.16.05,3.09-1.3,5.08-2.89,7.37-.85,1.27-1.74,2.56-2.45,4.11-.24.53-.46,1.09-.66,1.69-.61,1.84.1,3.88,1.73,4.95,2.88,1.9,7.46,3.57,12.33,4.93,6.72,1.91,13.96,3.28,17.92,3.96,13.56,2.36,26.35,3.36,33.36,2.6,14.38-1.53,23.67-.89,29.27,2.05,4.84,2.53,7.06,6.98,7.11,14.34-6.63,1.27-11.77,1.94-15.34,2-15.94.32-37.06-1.14-53.8-3.74-16.1-2.48-44.63-11.1-60.28-21.21-1.9-1.22-3.61-2.46-5.08-3.73-3.06-2.62-5.85-5.23-8.4-7.84-12.72-13.03-19.42-26.14-23.58-40.49-1.32-4.53-2.39-9.19-3.31-14-.45-2.35-2.73-3.89-5.06-3.44-2.33.45-3.88,2.71-3.43,5.06.81,4.23,1.73,8.35,2.81,12.38,3.84,14.33,9.82,27.5,20.85,40.49,3.28,3.86,7.02,7.72,11.28,11.57,1.04.95,2.12,1.9,3.22,2.84,15.03,12.86,50.11,23.89,69.67,26.91,17.47,2.7,38.66,4.18,55.29,3.82,13.68-.26,41.53-7.82,46.97-9.33,7.12-1.98,12.99-1.06,16.13,2.5,2.57,2.92,3.04,7.27,1.32,12.04-6.96-1.14-13.25-2.01-19.24-1.63-6.89.43-12.16,2.46-16.1,6.21-3.91,3.74-6.35,9.14-7.23,16.06-.83.06-1.68.09-2.52.13-2.62.09-5.31.22-7.63.55-73.05,10.98-135.67-1.68-167.55-33.91l-.3-.28c-8.73-7.09-16.44-15.92-22.84-25.91-2.38-3.72-4.58-7.58-6.59-11.57ZM698.52,420.18c-1.67,2.88-5.2,4.71-8.28,4.28-3.25-.45-5.91-3.06-6.94-6.24-2.79-8.59-5.73-17.14-8.6-25.7-1.99-5.94-3.98-11.88-5.97-17.82.16-.06.33-.12.49-.19,3.24,4.16,6.47,8.32,9.73,12.47,6.26,7.97,12.53,15.93,18.81,23.88,1.98,2.5,2.34,6.59.77,9.32Z"/>
      <path class="cls-1" d="M44.35,470.49h480.14c23.14,0,40.5-17.34,44.35-38.55H0c3.86,21.21,23.14,38.55,44.35,38.55Z"/>
      <path class="cls-1" d="M328.71,290.92c-4.51,2.86-11.09,3.34-16.77,1.22-5.66-2.1-8.94-6.1-9.01-10.96,0-.23-.02-.46-.07-.68,0-.02-.01-.05-.01-.07-.01-.08-.03-.15-.06-.23,0-.05-.01-.09-.03-.14-.02-.1-.06-.22-.1-.32-.14-.4-.34-.77-.61-1.1-.07-.09-.14-.18-.23-.28,0-.01-.01-.02-.02-.03h-.01c-.1-.13-.22-.24-.34-.35-.12-.09-.23-.2-.36-.28-.01-.01-.03-.02-.05-.03-.26-.17-.54-.32-.84-.45-.1-.03-.21-.08-.32-.1-.09-.03-.18-.06-.29-.08-.08-.02-.16-.03-.24-.05-.09-.02-.2-.03-.3-.05-.14-.01-.29-.02-.44-.02h-.06c-.16,0-.32.01-.48.03-.16.01-.31.05-.47.08-.01,0-.03.01-.05.01s-.03.01-.05.01c-.37.1-.73.24-1.05.44-.09.06-.17.12-.26.17-.24.15-.47.35-.68.55-.8.84-1.24,1.92-1.22,3.08.11,8.49,5.58,15.56,14.63,18.93,3.35,1.25,6.87,1.85,10.34,1.85,5.07,0,10.02-1.3,14.07-3.85,2-1.28,2.6-3.95,1.33-5.96-1.28-2.01-3.96-2.62-5.96-1.36Z"/>
      <path class="cls-1" d="M368.47,317.2c-.03-.17-.07-.35-.13-.52-.02-.09-.06-.2-.08-.29t-.01-.02c-.02-.06-.05-.13-.08-.2-.03-.1-.08-.21-.13-.31-.14-.31-.29-.62-.47-.92-.01-.01-.01-.02-.02-.03-.06-.09-.13-.18-.18-.28-.22-.33-.47-.67-.76-.99-4.9-5.59-17.89-9.16-23.98-5.01-4.12,2.79-4.01,5.97-3.58,7.6.05.2.12.38.18.58.03.1.08.22.13.33.14.35.31.68.52,1.01.22.37.48.74.77,1.1.15.2.32.39.49.59.44.48.93.94,1.48,1.39.25.22.53.44.82.64,2.28,1.66,5.23,2.99,8.49,3.73,1.75.39,3.44.59,5.02.59,4.22,0,7.74-1.38,10.01-4.05,1.1-1.23,1.65-2.59,1.62-3.99,0-.17-.01-.33-.03-.51-.01-.15-.03-.3-.07-.45Z"/>
      <path class="cls-1" d="M431.15,311.38c-1.15-.07-2.25.33-3.11,1.1-4.52,4.07-12.68,5.95-20.29,4.66-3.62-.63-6.65-1.9-8.76-3.67-2.06-1.74-3.08-3.82-3.16-6.38-.02-1.14-.51-2.22-1.33-3.03-.83-.79-1.91-1.21-3.08-1.18-1.15.03-2.22.52-3.02,1.35-.79.83-1.22,1.93-1.18,3.08.01.54.05,1.07.12,1.59.01.14.02.29.05.43.07.49.15.98.26,1.46.02.08.03.16.06.25.13.49.26.98.44,1.46.07.21.14.4.22.6.26.7.59,1.38.95,2.04.18.32.38.64.58.95.02.02.03.06.07.09.2.31.41.61.63.9.14.18.28.37.43.54.14.18.3.36.46.54.6.68,1.25,1.31,1.98,1.92,3.28,2.78,7.73,4.7,12.86,5.58,2.1.35,4.21.53,6.31.53,8.18,0,16.07-2.62,21.22-7.28.25-.23.47-.47.66-.75.1-.15.21-.31.29-.47.12-.21.21-.43.28-.66.06-.17.1-.33.13-.51.05-.2.07-.4.08-.61.06-1.16-.33-2.25-1.12-3.12-.77-.85-1.83-1.36-2.99-1.41Z"/>
      <path class="cls-1" d="M115.77,98.14c1.46,0,2.91-.54,4.01-1.65l21.78-21.78c2.22-2.21,2.22-5.8,0-8.02-1.1-1.11-2.55-1.66-4.01-1.66-1.44,0-2.9.55-4.01,1.66l-21.78,21.77h0c-2.21,2.22-2.21,5.81,0,8.03,1.11,1.11,2.57,1.65,4.01,1.65Z"/>
      <path class="cls-1" d="M117.24,118.09c1.11,1.11,2.57,1.66,4.01,1.66s2.91-.55,4.01-1.66l37.91-37.9c2.21-2.21,2.21-5.8,0-8.02-1.11-1.11-2.57-1.66-4.02-1.66h0c-1.44,0-2.9.55-4.01,1.66l-37.9,37.9c-2.21,2.21-2.21,5.8,0,8.02Z"/>
    </g>
  </g>
</svg>